<svg width="25" height="27" viewBox="0 0 25 27" fill="transparent" xmlns="http://www.w3.org/2000/svg">
    <path d="M22.8669 14.8135H22.0713H6.16452C6.16373 14.8135 6.16293 14.8135 6.16213 14.8135H2.1826H1.38705C0.729031 14.8135 0.193726 15.3488 0.193726 16.0068C0.193726 16.2265 0.371829 16.4046 0.5915 16.4046C0.811171 16.4046 0.989275 16.2265 0.989275 16.0068C0.989275 15.7875 1.16773 15.609 1.38705 15.609H1.71303L0.789542 21.1502C0.649824 21.9887 0.813707 22.8519 1.25106 23.5808L1.78482 24.4703V25.9014C1.78482 26.1482 1.9856 26.3489 2.23232 26.3489H22.0216C22.2683 26.3489 22.4691 26.1482 22.4691 25.9014V24.4703L23.0029 23.5808C23.4402 22.8519 23.6041 21.9887 23.4644 21.1502L22.5409 15.609H22.8669C23.0862 15.609 23.2647 15.7875 23.2647 16.0068C23.2647 16.2265 23.4428 16.4046 23.6624 16.4046C23.8821 16.4046 24.0602 16.2265 24.0602 16.0068C24.0602 15.3488 23.5249 14.8135 22.8669 14.8135ZM20.3318 23.1715L19.8573 23.9623H18.6811L18.9622 23.2597C19.1802 22.7147 19.2612 22.1182 19.1964 21.5347L18.538 15.609H19.7455L20.6908 21.281C20.7994 21.9331 20.672 22.6045 20.3318 23.1715ZM16.6319 23.9623L16.8972 23.033C17.0149 22.6207 17.0574 22.1949 17.0235 21.7673L16.5353 15.609H17.7375L18.4057 21.6225C18.4561 22.0763 18.3932 22.5403 18.2235 22.9642L17.8243 23.9623H16.6319ZM14.5366 23.9623L14.6185 22.5078C14.6233 22.4228 14.625 22.3363 14.6236 22.2509L14.5199 15.609H15.7372L16.2305 21.8302C16.2568 22.1627 16.2238 22.4939 16.1322 22.8146L15.8046 23.9623H14.5366ZM12.5247 23.9623V15.609H13.7242L13.8282 22.2633C13.8292 22.3298 13.8279 22.3971 13.8242 22.4632L13.7398 23.9623H12.5247ZM10.5118 23.9623L10.4187 22.4734C10.4141 22.3996 10.4124 22.325 10.4137 22.2513L10.5291 15.609H11.7292V23.9623H10.5118ZM4.39666 23.9623L3.92212 23.1715C3.58197 22.6046 3.45448 21.9332 3.56313 21.281L4.50844 15.609H5.71593L5.05751 21.5347C4.99268 22.1182 5.07367 22.7147 5.2917 23.2597L5.57273 23.9623H4.39666ZM6.42964 23.9623L6.03037 22.9642C5.86077 22.5403 5.79777 22.0764 5.84819 21.6226L6.5164 15.609H7.71843L7.22698 21.7631C7.19262 22.1936 7.23568 22.6223 7.35501 23.0373L7.62097 23.9623H6.42964ZM8.44874 23.9623L8.11958 22.8174C8.02675 22.4947 7.99324 22.1613 8.01999 21.8264L8.51651 15.609H9.73336L9.6183 22.2375C9.61661 22.3321 9.6188 22.4281 9.62471 22.523L9.71471 23.9623H8.44874ZM1.57425 21.281L2.51956 15.609H3.70195L2.77842 21.1502C2.6387 21.9887 2.80258 22.8519 3.23993 23.5808L3.46885 23.9623H2.40779L1.93324 23.1715C1.5931 22.6045 1.46561 21.9331 1.57425 21.281ZM21.6736 25.5534H2.58037V24.7578H4.17107C4.17083 24.7578 4.17132 24.7578 4.17107 24.7578C4.17132 24.7578 4.17232 24.7578 4.17257 24.7578H6.15915C6.1596 24.7578 6.16 24.7579 6.16044 24.7579C6.16114 24.7579 6.16184 24.7578 6.16253 24.7578H8.14783C8.14822 24.7578 8.14862 24.7579 8.14902 24.7579C8.14947 24.7579 8.14996 24.7578 8.15041 24.7578H16.1035C16.104 24.7578 16.1045 24.7579 16.1049 24.7579C16.1053 24.7579 16.1057 24.7578 16.1061 24.7578H18.0914C18.0921 24.7578 18.0928 24.7579 18.0935 24.7579C18.0939 24.7579 18.0943 24.7578 18.0948 24.7578H20.0814C20.0811 24.7578 20.0816 24.7578 20.0814 24.7578C20.0816 24.7578 20.0826 24.7578 20.0829 24.7578H21.6736V25.5534ZM22.3207 23.1715L21.8461 23.9623H20.7851L21.014 23.5808C21.4513 22.8519 21.6152 21.9887 21.4755 21.1502L20.552 15.609H21.7344L22.6797 21.281C22.7883 21.9331 22.6608 22.6045 22.3207 23.1715Z"
          fill="currentColor"/>
    <path d="M4.56904 14.0182C4.78871 14.0182 4.96681 13.8401 4.96681 13.6204V1.68715H19.2867V13.6204C19.2867 13.8401 19.4648 14.0182 19.6845 14.0182C19.9041 14.0182 20.0823 13.8401 20.0823 13.6204V1.68715C20.0823 1.2485 19.7253 0.891602 19.2867 0.891602H4.96681C4.52817 0.891602 4.17126 1.2485 4.17126 1.68715V13.6204C4.17126 13.8401 4.34937 14.0182 4.56904 14.0182Z"
          fill="currentColor"/>
    <path d="M18.0942 14.0179C18.3139 14.0179 18.492 13.8398 18.492 13.6201V2.8802C18.492 2.66053 18.3139 2.48242 18.0942 2.48242H6.16096C5.94129 2.48242 5.76318 2.66053 5.76318 2.8802V13.6201C5.76318 13.8398 5.94129 14.0179 6.16096 14.0179C6.38063 14.0179 6.55873 13.8398 6.55873 13.6201V7.65349H10.5364C10.7561 7.65349 10.9342 7.47539 10.9342 7.25572C10.9342 7.03605 10.7561 6.85794 10.5364 6.85794H6.55873V3.27797H11.7298V13.6201C11.7298 13.8398 11.9079 14.0179 12.1276 14.0179C12.3472 14.0179 12.5254 13.8398 12.5254 13.6201V7.65349H17.6964V13.6201C17.6964 13.8398 17.8745 14.0179 18.0942 14.0179ZM12.5254 6.85794V3.27797H17.6964V6.85794H12.5254Z"
          fill="currentColor"/>
</svg>
