<svg width="24" height="21" viewBox="0 0 24 21" fill="transparent" xmlns="http://www.w3.org/2000/svg">
    <path d="M1.7262 10.6205H2.8803M2.8803 10.6205H21.3459M2.8803 10.6205V12.9287C2.8803 14.2424 3.55325 16.6777 6.04816 17.3621M21.3459 10.6205C21.9834 10.6205 22.5 10.1038 22.5 9.46642V4.85001C22.5 3.6959 21.8076 1.3877 19.0377 1.3877C16.2679 1.3877 15.5754 3.6959 15.5754 4.85001M21.3459 10.6205V12.9287C21.3459 14.2424 20.673 16.6777 18.178 17.3621M15.5754 4.85001H13.2672M15.5754 4.85001H17.8836M18.178 17.3621C17.7507 17.4792 17.2698 17.5451 16.7295 17.5451C15.1908 17.5451 11.1898 17.5451 7.49671 17.5451C6.95653 17.5451 6.47561 17.4794 6.04816 17.3621M18.178 17.3621L19.0377 19.8533M6.04816 17.3621L5.18851 19.8533"
          stroke="currentColor" stroke-width="1.73115" stroke-linecap="round" stroke-linejoin="round"/>
</svg>
