<svg width="18" height="18" viewBox="0 0 18 18" fill="currentColor" xmlns="http://www.w3.org/2000/svg">
    <path d="M13.8263 0.387207H4.44414C3.41288 0.387207 2.57408 1.22525 2.57408 2.25576V16.1479H1.55796C1.22304 16.1479 0.951782 16.4191 0.951782 16.7541C0.951782 17.089 1.22304 17.3602 1.55796 17.3602H16.7125C17.0474 17.3602 17.3187 17.089 17.3187 16.7541C17.3187 16.4191 17.0474 16.1479 16.7125 16.1479H15.6964V2.25576C15.6964 1.22525 14.8575 0.387207 13.8263 0.387207ZM10.84 16.1479H7.43024V14.8598C7.43024 13.9194 8.19478 13.1549 9.13513 13.1549C10.0755 13.1549 10.84 13.9194 10.84 14.8598L10.84 16.1479ZM12.0523 16.1479V14.8598C12.0523 13.2511 10.7438 11.9426 9.13511 11.9426C7.52647 11.9426 6.21788 13.2511 6.21788 14.8598V16.1479H3.78636V2.2558C3.78636 1.89436 4.08111 1.59961 4.44406 1.59961H13.827C14.1892 1.59961 14.4839 1.89436 14.4839 2.2558V16.1479H12.0523Z"/>
    <path d="M7.41616 4.7998H5.92344C5.58852 4.7998 5.31726 5.07106 5.31726 5.40599C5.31726 5.74091 5.58852 6.01217 5.92344 6.01217H7.41616C7.75108 6.01217 8.02234 5.74091 8.02234 5.40599C8.02234 5.07106 7.75108 4.7998 7.41616 4.7998Z"/>
    <path d="M12.3477 4.7998H10.855C10.52 4.7998 10.2488 5.07106 10.2488 5.40599C10.2488 5.74091 10.52 6.01217 10.855 6.01217H12.3477C12.6826 6.01217 12.9539 5.74091 12.9539 5.40599C12.9539 5.07106 12.6826 4.7998 12.3477 4.7998Z"/>
    <path d="M7.41616 8.16016H5.92344C5.58852 8.16016 5.31726 8.43142 5.31726 8.76634C5.31726 9.10126 5.58852 9.37252 5.92344 9.37252H7.41616C7.75108 9.37252 8.02234 9.10126 8.02234 8.76634C8.02234 8.43142 7.75108 8.16016 7.41616 8.16016Z"/>
    <path d="M12.3477 8.16016H10.855C10.52 8.16016 10.2488 8.43142 10.2488 8.76634C10.2488 9.10126 10.52 9.37252 10.855 9.37252H12.3477C12.6826 9.37252 12.9539 9.10126 12.9539 8.76634C12.9539 8.43142 12.6826 8.16016 12.3477 8.16016Z"/>
</svg>
