<svg width="22" height="21" viewBox="0 0 22 21" fill="transparent" xmlns="http://www.w3.org/2000/svg">
    <path d="M9.27939 19.7348C10.2147 19.7348 10.973 18.9766 10.973 18.0412C10.973 17.1059 10.2147 16.3477 9.27939 16.3477C8.34405 16.3477 7.58582 17.1059 7.58582 18.0412C7.58582 18.9766 8.34405 19.7348 9.27939 19.7348Z"
          stroke="currentColor" stroke-width="1.69357" stroke-miterlimit="10"/>
    <path d="M16.8961 19.7348C17.8314 19.7348 18.5897 18.9766 18.5897 18.0412C18.5897 17.1059 17.8314 16.3477 16.8961 16.3477C15.9608 16.3477 15.2025 17.1059 15.2025 18.0412C15.2025 18.9766 15.9608 19.7348 16.8961 19.7348Z"
          stroke="currentColor" stroke-width="1.69357" stroke-miterlimit="10"/>
    <path d="M0.811646 1.11426H3.17023C3.71109 1.11331 4.23818 1.28471 4.67504 1.60358C5.1119 1.92246 5.4358 2.37223 5.59975 2.88763L8.42828 12.118H8.01154C7.4495 12.118 6.91047 12.3413 6.51305 12.7387C6.11563 13.1362 5.89236 13.6752 5.89236 14.2372C5.8947 14.7977 6.11901 15.3345 6.51618 15.73C6.91335 16.1255 7.45103 16.3475 8.01154 16.3475H16.8784"
          stroke="currentColor" stroke-width="1.69357" stroke-miterlimit="10"/>
    <path d="M6.74377 4.50098H20.2835V6.19455L18.5899 12.1176H8.42848" stroke="currentColor" stroke-width="1.69357"
          stroke-miterlimit="10"/>
</svg>
