<svg width="29" height="24" viewBox="0 0 29 24" fill="none" xmlns="http://www.w3.org/2000/svg">
    <path d="M26.9035 6.11961L21.8608 8.9211C19.0495 10.483 17.6438 11.264 16.1551 11.5702C14.8375 11.8411 13.4785 11.8411 12.1609 11.5702C10.6723 11.264 9.2666 10.483 6.45518 8.9211L1.41248 6.11961M5.94422 21.6975H22.3718C23.9581 21.6975 24.7513 21.6975 25.3571 21.3888C25.89 21.1173 26.3233 20.6839 26.5948 20.151C26.9035 19.5452 26.9035 18.752 26.9035 17.1657V6.40284C26.9035 4.81659 26.9035 4.02345 26.5948 3.41758C26.3233 2.88463 25.89 2.45134 25.3571 2.1798C24.7513 1.87109 23.9581 1.87109 22.3718 1.87109H5.94422C4.35797 1.87109 3.56483 1.87109 2.95896 2.1798C2.42601 2.45134 1.99272 2.88463 1.72119 3.41758C1.41248 4.02345 1.41248 4.81657 1.41248 6.40284V17.1657C1.41248 18.752 1.41248 19.5452 1.72119 20.151C1.99272 20.6839 2.42601 21.1173 2.95896 21.3888C3.56483 21.6975 4.35795 21.6975 5.94422 21.6975Z" stroke="black" stroke-width="2.83234" stroke-linecap="round" stroke-linejoin="round"/>
</svg>
