<svg width="21" height="19" viewBox="0 0 21 19" fill="currentColor" xmlns="http://www.w3.org/2000/svg">
    <path fill-rule="evenodd" clip-rule="evenodd"
          d="M6.89142 0.000121002C6.92756 0.00019225 6.96376 0.000251518 7 0.000251518C7.03628 0.000251518 7.07245 0.00019225 7.10862 0.000121002C7.53877 -0.000603355 7.96157 -0.00131617 8.33817 0.1014C9.34477 0.375907 10.1309 1.17611 10.4006 2.20057C10.5015 2.58394 10.5008 3.01429 10.5001 3.45213C10.5001 3.48893 10.5 3.52578 10.5 3.56266H19.8333C20.4777 3.56266 21 4.0943 21 4.75013C21 5.40595 20.4777 5.9376 19.8333 5.9376H10.5C10.5 5.97448 10.5001 6.01133 10.5001 6.04813C10.5008 6.48598 10.5015 6.91633 10.4006 7.29974C10.1309 8.32417 9.34477 9.1244 8.33817 9.39883C7.96157 9.50154 7.53877 9.50083 7.10862 9.50012C7.07245 9.50012 7.03628 9.5 7 9.5C6.96376 9.5 6.92756 9.50012 6.89141 9.50012C6.46123 9.50083 6.03842 9.50154 5.66178 9.39883C4.65526 9.1244 3.86907 8.32417 3.59939 7.29974C3.49846 6.91632 3.49916 6.48598 3.49988 6.04812C3.49994 6.01133 3.5 5.97447 3.5 5.9376H1.16667C0.52234 5.9376 0 5.40595 0 4.75013C0 4.0943 0.52234 3.56266 1.16667 3.56266H3.5C3.5 3.52578 3.49994 3.48893 3.49988 3.45213C3.49916 3.01429 3.49846 2.58394 3.59939 2.20057C3.86907 1.17611 4.65526 0.375907 5.66178 0.1014C6.03842 -0.00131617 6.46123 -0.000603355 6.89142 0.000121002ZM6.41504 2.38154C6.29061 2.38732 6.26133 2.39661 6.26569 2.39541C6.06438 2.45032 5.90715 2.61036 5.85321 2.81526C5.85223 2.81942 5.84457 2.8559 5.83957 2.96726C5.83361 3.1003 5.83333 3.27582 5.83333 3.56266V5.9376C5.83333 6.22444 5.83361 6.39996 5.83957 6.53299C5.84524 6.65964 5.85438 6.68944 5.85321 6.68501C5.90715 6.88989 6.06438 7.04994 6.26569 7.10484C6.26133 7.10365 6.29061 7.11294 6.41504 7.11872C6.54573 7.12479 6.71818 7.12506 7 7.12506C7.28187 7.12506 7.4543 7.12479 7.58497 7.11872C7.70933 7.11294 7.73862 7.10365 7.7343 7.10484C7.93567 7.04994 8.09282 6.88989 8.14683 6.68501C8.14567 6.68944 8.15477 6.65964 8.16037 6.53299C8.16643 6.39996 8.16667 6.22444 8.16667 5.9376V3.56266C8.16667 3.27582 8.16643 3.1003 8.16037 2.96726C8.15477 2.84062 8.14567 2.81082 8.14683 2.81526M6.41504 2.38154C6.54573 2.37548 6.71818 2.37519 7 2.37519L6.41504 2.38154ZM7 2.37519C7.28187 2.37519 7.4543 2.37548 7.58497 2.38154L7 2.37519ZM7.58497 2.38154C7.6944 2.38662 7.73022 2.39442 7.7343 2.39541L7.58497 2.38154ZM13.8914 9.49988C13.9275 9.5 13.9637 9.5 14 9.5C14.0363 9.5 14.0724 9.5 14.1086 9.49988C14.5388 9.49917 14.9616 9.49846 15.3382 9.60117C16.3448 9.87572 17.1309 10.6758 17.4006 11.7004C17.5015 12.0837 17.5008 12.514 17.5001 12.9519C17.5001 12.9887 17.5 13.0255 17.5 13.0624H19.8333C20.4777 13.0624 21 13.594 21 14.2499C21 14.9057 20.4777 15.4374 19.8333 15.4374H17.5C17.5 15.4743 17.5001 15.5111 17.5001 15.5479C17.5008 15.9857 17.5015 16.4161 17.4006 16.7995C17.1309 17.8239 16.3448 18.6242 15.3382 18.8986C14.9616 19.0013 14.5388 19.0006 14.1086 18.9999C14.0724 18.9999 14.0363 18.9998 14 18.9998C13.9637 18.9998 13.9275 18.9999 13.8914 18.9999C13.4612 19.0006 13.0384 19.0013 12.6618 18.8986C11.6552 18.6242 10.8691 17.8239 10.5994 16.7995C10.4985 16.4161 10.4992 15.9857 10.4999 15.5479C10.4999 15.5111 10.5 15.4743 10.5 15.4374H1.16667C0.52234 15.4374 0 14.9057 0 14.2499C0 13.594 0.52234 13.0624 1.16667 13.0624H10.5C10.5 13.0256 10.4999 12.9887 10.4999 12.9519C10.4992 12.514 10.4985 12.0837 10.5994 11.7004C10.8691 10.6758 11.6552 9.87572 12.6618 9.60117C13.0384 9.49846 13.4612 9.49917 13.8914 9.49988ZM13.415 11.8814C13.2907 11.8871 13.2614 11.8963 13.2657 11.8951C13.0643 11.9501 12.9072 12.1102 12.8532 12.315C12.8543 12.3106 12.8452 12.3404 12.8396 12.467C12.8336 12.6 12.8333 12.7756 12.8333 13.0624V15.4374C12.8333 15.7242 12.8336 15.8998 12.8396 16.0327C12.8452 16.1595 12.8543 16.1893 12.8532 16.1847C12.9072 16.3897 13.0643 16.5497 13.2657 16.6046C13.2614 16.6034 13.2907 16.6127 13.415 16.6185C13.5457 16.6246 13.7181 16.6248 14 16.6248C14.2819 16.6248 14.4543 16.6246 14.585 16.6185C14.7093 16.6127 14.7386 16.6034 14.7343 16.6046C14.9357 16.5497 15.0928 16.3897 15.1468 16.1847C15.1457 16.1893 15.1548 16.1595 15.1604 16.0327C15.1664 15.8998 15.1667 15.7242 15.1667 15.4374V13.0624C15.1667 12.7756 15.1664 12.6 15.1604 12.467C15.1548 12.3404 15.1457 12.3106 15.1468 12.315C15.0928 12.1102 14.9357 11.9501 14.7343 11.8951C14.7386 11.8963 14.7093 11.8871 14.585 11.8814C14.4543 11.8752 14.2819 11.8749 14 11.8749C13.7181 11.8749 13.5457 11.8752 13.415 11.8814Z"
    />
</svg>
