<svg width="23" height="26" viewBox="0 0 23 26" fill="none" xmlns="http://www.w3.org/2000/svg">
    <path d="M6.35608 24.6015H18.7834C20.6515 24.6015 22.1136 23.1394 22.1136 21.2713C22.1136 19.8905 21.2201 18.5909 19.8393 18.1035L8.14301 14.0423C4.56915 12.9052 0.914062 15.5044 0.914062 19.1595C0.914062 22.1648 3.35079 24.6015 6.35608 24.6015Z"
          stroke="currentColor" stroke-width="1.62448" stroke-miterlimit="10" stroke-linecap="round"
          stroke-linejoin="round"/>
    <path d="M9.84871 22.1654C11.1945 22.1654 12.2854 21.0745 12.2854 19.7287C12.2854 18.383 11.1945 17.292 9.84871 17.292C8.50295 17.292 7.41199 18.383 7.41199 19.7287C7.41199 21.0745 8.50295 22.1654 9.84871 22.1654Z"
          stroke="currentColor" stroke-width="1.62448" stroke-miterlimit="10" stroke-linecap="round"
          stroke-linejoin="round"/>
    <path d="M8.22425 7.5444H5.62508C4.16304 7.5444 2.78223 6.97584 1.72632 5.91992" stroke="currentColor"
          stroke-width="1.62448" stroke-miterlimit="10" stroke-linecap="round" stroke-linejoin="round"/>
    <path d="M5.78723 7.54492L9.0362 14.0429" stroke="currentColor" stroke-width="1.62448" stroke-miterlimit="10"
          stroke-linecap="round" stroke-linejoin="round"/>
    <path d="M19.5954 3.4834L16.3464 16.4793" stroke="currentColor" stroke-width="1.62448" stroke-miterlimit="10"
          stroke-linecap="round" stroke-linejoin="round"/>
    <path d="M15.5345 4.29584C18.0525 4.29584 20.4892 3.07748 22.0325 1.04688" stroke="currentColor" stroke-width="1.62448"
          stroke-miterlimit="10" stroke-linecap="round" stroke-linejoin="round"/>
    <path d="M9.84851 19.7285H14.722" stroke="currentColor" stroke-width="1.62448" stroke-miterlimit="10"
          stroke-linecap="round" stroke-linejoin="round"/>
</svg>
