<svg width="11" height="10" viewBox="0 0 11 10" fill="none" xmlns="http://www.w3.org/2000/svg">
    <rect x="0.59082" width="9.87474" height="9.87474" rx="4.93737" fill="#02504D"/>
    <path d="M5.08159 5.7708C5.09047 5.61971 5.11491 5.49085 5.15491 5.3842C5.1949 5.27311 5.24378 5.17535 5.30155 5.09092C5.36376 5.00649 5.43041 4.93317 5.50151 4.87096C5.57705 4.80431 5.65037 4.7421 5.72147 4.68433C5.78368 4.63545 5.84367 4.58657 5.90144 4.53769C5.96365 4.48437 6.01697 4.42882 6.06141 4.37105C6.10584 4.31329 6.14139 4.25107 6.16805 4.18442C6.19472 4.11332 6.20805 4.03334 6.20805 3.94446C6.20805 3.74894 6.14584 3.61119 6.02141 3.53121C5.89699 3.45122 5.74146 3.41123 5.55483 3.41123C5.40819 3.41123 5.28599 3.43122 5.18823 3.47122C5.09047 3.50677 5.01049 3.55787 4.94828 3.62452C4.89051 3.69118 4.84829 3.76672 4.82163 3.85115C4.79941 3.93558 4.78831 4.02445 4.78831 4.11777H3.99512C3.99512 3.9178 4.02622 3.72895 4.08843 3.5512C4.15064 3.37346 4.24396 3.21793 4.36838 3.08462C4.49725 2.95131 4.65722 2.84689 4.84829 2.77135C5.03937 2.69136 5.26377 2.65137 5.5215 2.65137C5.73036 2.65137 5.9281 2.68025 6.11473 2.73802C6.30136 2.79134 6.46355 2.87355 6.60131 2.98464C6.7435 3.09129 6.85459 3.22682 6.93458 3.39123C7.01901 3.5512 7.06122 3.73784 7.06122 3.95113C7.06122 4.09333 7.04123 4.21775 7.00123 4.32439C6.96569 4.43104 6.91681 4.52436 6.85459 4.60434C6.79683 4.68433 6.73017 4.75765 6.65463 4.8243C6.57909 4.88651 6.50133 4.9465 6.42134 5.00427C6.35469 5.05315 6.29025 5.10425 6.22804 5.15758C6.16583 5.20646 6.10806 5.262 6.05474 5.32421C6.00586 5.38198 5.96365 5.44863 5.9281 5.52418C5.89255 5.59527 5.86811 5.67748 5.85478 5.7708H5.08159ZM4.94161 6.72396C4.94161 6.56843 4.99271 6.44623 5.09492 6.35736C5.19712 6.26848 5.31488 6.22405 5.44818 6.22405C5.58149 6.22405 5.69703 6.26848 5.79479 6.35736C5.89699 6.44623 5.94809 6.56843 5.94809 6.72396C5.94809 6.87504 5.89699 6.99724 5.79479 7.09056C5.69703 7.17943 5.58149 7.22387 5.44818 7.22387C5.31488 7.22387 5.19712 7.17943 5.09492 7.09056C4.99271 7.00168 4.94161 6.87948 4.94161 6.72396Z" fill="#FAFAFA"/>
</svg>
