<svg width="29" height="25" viewBox="0 0 29 25" fill="currentColor" xmlns="http://www.w3.org/2000/svg">
    <mask id="path-1-outside-1_631_1791" maskUnits="userSpaceOnUse" x="-0.739929" y="-0.0263672" width="29" height="25"
          fill="black">
        <rect fill="white" x="-0.739929" y="-0.0263672" width="29" height="25"/>
        <path d="M5.43441 0.973633C5.28194 0.973646 5.13571 1.02794 5.0279 1.12456C4.92008 1.22118 4.8595 1.35223 4.85949 1.48888V3.28419L1.0753 5.70645C1.00086 5.7542 0.940224 5.81719 0.898427 5.89018C0.856631 5.96317 0.834885 6.04405 0.834998 6.12609V8.18707C0.835013 8.32372 0.89559 8.45477 1.00341 8.55139C1.11122 8.64801 1.25745 8.7023 1.40992 8.70232H14.0583C14.2108 8.7023 14.357 8.64801 14.4648 8.55139C14.5727 8.45477 14.6332 8.32372 14.6332 8.18707V6.12609C14.6334 6.04405 14.6116 5.96317 14.5698 5.89018C14.528 5.81719 14.4674 5.7542 14.3929 5.70645L10.6088 3.28519V1.48888C10.6087 1.35223 10.5482 1.22118 10.4403 1.12456C10.3325 1.02794 10.1863 0.973646 10.0338 0.973633H5.43441ZM6.00934 2.00412H9.4589V3.54986C9.45879 3.6319 9.48053 3.71278 9.52233 3.78577C9.56413 3.85876 9.62477 3.92175 9.6992 3.9695L13.4834 6.39076V7.67183H1.98485V6.39076L5.76904 3.9695C5.84348 3.92175 5.90411 3.85876 5.94591 3.78577C5.98771 3.71278 6.00945 3.6319 6.00934 3.54986V2.00412ZM3.42217 11.7938C3.04603 11.7938 2.73099 12.0092 2.61256 12.309H0.834998C0.682522 12.309 0.536296 12.3633 0.42848 12.46C0.320663 12.5566 0.260086 12.6876 0.260071 12.8243L0.260071 24.1597C0.260086 24.2963 0.320663 24.4274 0.42848 24.524C0.536296 24.6206 0.682522 24.6749 0.834998 24.6749H27.3367C27.4891 24.6749 27.6354 24.6206 27.7432 24.524C27.851 24.4274 27.9116 24.2963 27.9116 24.1597V12.8243C27.9116 12.6876 27.851 12.5566 27.7432 12.46C27.6354 12.3633 27.4891 12.309 27.3367 12.309H12.8557C12.7372 12.0092 12.4222 11.7938 12.0461 11.7938H3.42217ZM1.40992 13.3395H3.42217H12.0461H14.1133V23.6444H1.40992V13.3395ZM15.2632 13.3395H26.7617V16.431H15.2632V13.3395ZM3.13471 14.37C2.98223 14.37 2.836 14.4243 2.72819 14.5209C2.62037 14.6176 2.55979 14.7486 2.55978 14.8853V22.0987C2.55979 22.2354 2.62037 22.3664 2.72819 22.463C2.836 22.5596 2.98223 22.6139 3.13471 22.6139H12.3335C12.486 22.6139 12.6322 22.5596 12.7401 22.463C12.8479 22.3664 12.9084 22.2354 12.9085 22.0987V14.8853C12.9084 14.7486 12.8479 14.6176 12.7401 14.5209C12.6322 14.4243 12.486 14.37 12.3335 14.37H3.13471ZM17.5079 14.37C17.4317 14.3691 17.3561 14.3817 17.2854 14.4071C17.2147 14.4326 17.1503 14.4704 17.0961 14.5183C17.0418 14.5663 16.9987 14.6234 16.9693 14.6864C16.9399 14.7494 16.9248 14.817 16.9248 14.8853C16.9248 14.9535 16.9399 15.0211 16.9693 15.0841C16.9987 15.1471 17.0418 15.2043 17.0961 15.2522C17.1503 15.3001 17.2147 15.3379 17.2854 15.3634C17.3561 15.3889 17.4317 15.4015 17.5079 15.4005H24.407C24.4832 15.4015 24.5588 15.3889 24.6295 15.3634C24.7002 15.3379 24.7646 15.3001 24.8188 15.2522C24.8731 15.2043 24.9162 15.1471 24.9456 15.0841C24.975 15.0211 24.9901 14.9535 24.9901 14.8853C24.9901 14.817 24.975 14.7494 24.9456 14.6864C24.9162 14.6234 24.8731 14.5663 24.8188 14.5183C24.7646 14.4704 24.7002 14.4326 24.6295 14.4071C24.5588 14.3817 24.4832 14.3691 24.407 14.37H17.5079ZM3.70963 15.4005H11.7586V21.5835H3.70963V15.4005ZM15.2632 17.4615H26.7617V23.6444H15.2632V17.4615ZM17.4989 19.0002C17.3466 19.0023 17.2015 19.0585 17.0954 19.1564C16.9893 19.2544 16.9309 19.386 16.933 19.5225V22.0987C16.9319 22.167 16.9459 22.2348 16.9744 22.2981C17.0028 22.3615 17.0449 22.4192 17.0984 22.4678C17.1519 22.5164 17.2157 22.555 17.286 22.5814C17.3563 22.6077 17.4317 22.6213 17.5079 22.6213C17.5841 22.6213 17.6595 22.6077 17.7298 22.5814C17.8001 22.555 17.8638 22.5164 17.9173 22.4678C17.9708 22.4192 18.013 22.3615 18.0414 22.2981C18.0698 22.2348 18.0839 22.167 18.0828 22.0987V19.5225C18.0839 19.4535 18.0695 19.3851 18.0405 19.3213C18.0115 19.2574 17.9685 19.1994 17.9141 19.1507C17.8596 19.102 17.7948 19.0636 17.7235 19.0377C17.6522 19.0119 17.5758 18.9991 17.4989 19.0002Z"/>
    </mask>
    <path d="M5.43441 0.973633C5.28194 0.973646 5.13571 1.02794 5.0279 1.12456C4.92008 1.22118 4.8595 1.35223 4.85949 1.48888V3.28419L1.0753 5.70645C1.00086 5.7542 0.940224 5.81719 0.898427 5.89018C0.856631 5.96317 0.834885 6.04405 0.834998 6.12609V8.18707C0.835013 8.32372 0.89559 8.45477 1.00341 8.55139C1.11122 8.64801 1.25745 8.7023 1.40992 8.70232H14.0583C14.2108 8.7023 14.357 8.64801 14.4648 8.55139C14.5727 8.45477 14.6332 8.32372 14.6332 8.18707V6.12609C14.6334 6.04405 14.6116 5.96317 14.5698 5.89018C14.528 5.81719 14.4674 5.7542 14.3929 5.70645L10.6088 3.28519V1.48888C10.6087 1.35223 10.5482 1.22118 10.4403 1.12456C10.3325 1.02794 10.1863 0.973646 10.0338 0.973633H5.43441ZM6.00934 2.00412H9.4589V3.54986C9.45879 3.6319 9.48053 3.71278 9.52233 3.78577C9.56413 3.85876 9.62477 3.92175 9.6992 3.9695L13.4834 6.39076V7.67183H1.98485V6.39076L5.76904 3.9695C5.84348 3.92175 5.90411 3.85876 5.94591 3.78577C5.98771 3.71278 6.00945 3.6319 6.00934 3.54986V2.00412ZM3.42217 11.7938C3.04603 11.7938 2.73099 12.0092 2.61256 12.309H0.834998C0.682522 12.309 0.536296 12.3633 0.42848 12.46C0.320663 12.5566 0.260086 12.6876 0.260071 12.8243L0.260071 24.1597C0.260086 24.2963 0.320663 24.4274 0.42848 24.524C0.536296 24.6206 0.682522 24.6749 0.834998 24.6749H27.3367C27.4891 24.6749 27.6354 24.6206 27.7432 24.524C27.851 24.4274 27.9116 24.2963 27.9116 24.1597V12.8243C27.9116 12.6876 27.851 12.5566 27.7432 12.46C27.6354 12.3633 27.4891 12.309 27.3367 12.309H12.8557C12.7372 12.0092 12.4222 11.7938 12.0461 11.7938H3.42217ZM1.40992 13.3395H3.42217H12.0461H14.1133V23.6444H1.40992V13.3395ZM15.2632 13.3395H26.7617V16.431H15.2632V13.3395ZM3.13471 14.37C2.98223 14.37 2.836 14.4243 2.72819 14.5209C2.62037 14.6176 2.55979 14.7486 2.55978 14.8853V22.0987C2.55979 22.2354 2.62037 22.3664 2.72819 22.463C2.836 22.5596 2.98223 22.6139 3.13471 22.6139H12.3335C12.486 22.6139 12.6322 22.5596 12.7401 22.463C12.8479 22.3664 12.9084 22.2354 12.9085 22.0987V14.8853C12.9084 14.7486 12.8479 14.6176 12.7401 14.5209C12.6322 14.4243 12.486 14.37 12.3335 14.37H3.13471ZM17.5079 14.37C17.4317 14.3691 17.3561 14.3817 17.2854 14.4071C17.2147 14.4326 17.1503 14.4704 17.0961 14.5183C17.0418 14.5663 16.9987 14.6234 16.9693 14.6864C16.9399 14.7494 16.9248 14.817 16.9248 14.8853C16.9248 14.9535 16.9399 15.0211 16.9693 15.0841C16.9987 15.1471 17.0418 15.2043 17.0961 15.2522C17.1503 15.3001 17.2147 15.3379 17.2854 15.3634C17.3561 15.3889 17.4317 15.4015 17.5079 15.4005H24.407C24.4832 15.4015 24.5588 15.3889 24.6295 15.3634C24.7002 15.3379 24.7646 15.3001 24.8188 15.2522C24.8731 15.2043 24.9162 15.1471 24.9456 15.0841C24.975 15.0211 24.9901 14.9535 24.9901 14.8853C24.9901 14.817 24.975 14.7494 24.9456 14.6864C24.9162 14.6234 24.8731 14.5663 24.8188 14.5183C24.7646 14.4704 24.7002 14.4326 24.6295 14.4071C24.5588 14.3817 24.4832 14.3691 24.407 14.37H17.5079ZM3.70963 15.4005H11.7586V21.5835H3.70963V15.4005ZM15.2632 17.4615H26.7617V23.6444H15.2632V17.4615ZM17.4989 19.0002C17.3466 19.0023 17.2015 19.0585 17.0954 19.1564C16.9893 19.2544 16.9309 19.386 16.933 19.5225V22.0987C16.9319 22.167 16.9459 22.2348 16.9744 22.2981C17.0028 22.3615 17.0449 22.4192 17.0984 22.4678C17.1519 22.5164 17.2157 22.555 17.286 22.5814C17.3563 22.6077 17.4317 22.6213 17.5079 22.6213C17.5841 22.6213 17.6595 22.6077 17.7298 22.5814C17.8001 22.555 17.8638 22.5164 17.9173 22.4678C17.9708 22.4192 18.013 22.3615 18.0414 22.2981C18.0698 22.2348 18.0839 22.167 18.0828 22.0987V19.5225C18.0839 19.4535 18.0695 19.3851 18.0405 19.3213C18.0115 19.2574 17.9685 19.1994 17.9141 19.1507C17.8596 19.102 17.7948 19.0636 17.7235 19.0377C17.6522 19.0119 17.5758 18.9991 17.4989 19.0002Z"
          />
    <path d="M5.43441 0.973633C5.28194 0.973646 5.13571 1.02794 5.0279 1.12456C4.92008 1.22118 4.8595 1.35223 4.85949 1.48888V3.28419L1.0753 5.70645C1.00086 5.7542 0.940224 5.81719 0.898427 5.89018C0.856631 5.96317 0.834885 6.04405 0.834998 6.12609V8.18707C0.835013 8.32372 0.89559 8.45477 1.00341 8.55139C1.11122 8.64801 1.25745 8.7023 1.40992 8.70232H14.0583C14.2108 8.7023 14.357 8.64801 14.4648 8.55139C14.5727 8.45477 14.6332 8.32372 14.6332 8.18707V6.12609C14.6334 6.04405 14.6116 5.96317 14.5698 5.89018C14.528 5.81719 14.4674 5.7542 14.3929 5.70645L10.6088 3.28519V1.48888C10.6087 1.35223 10.5482 1.22118 10.4403 1.12456C10.3325 1.02794 10.1863 0.973646 10.0338 0.973633H5.43441ZM6.00934 2.00412H9.4589V3.54986C9.45879 3.6319 9.48053 3.71278 9.52233 3.78577C9.56413 3.85876 9.62477 3.92175 9.6992 3.9695L13.4834 6.39076V7.67183H1.98485V6.39076L5.76904 3.9695C5.84348 3.92175 5.90411 3.85876 5.94591 3.78577C5.98771 3.71278 6.00945 3.6319 6.00934 3.54986V2.00412ZM3.42217 11.7938C3.04603 11.7938 2.73099 12.0092 2.61256 12.309H0.834998C0.682522 12.309 0.536296 12.3633 0.42848 12.46C0.320663 12.5566 0.260086 12.6876 0.260071 12.8243L0.260071 24.1597C0.260086 24.2963 0.320663 24.4274 0.42848 24.524C0.536296 24.6206 0.682522 24.6749 0.834998 24.6749H27.3367C27.4891 24.6749 27.6354 24.6206 27.7432 24.524C27.851 24.4274 27.9116 24.2963 27.9116 24.1597V12.8243C27.9116 12.6876 27.851 12.5566 27.7432 12.46C27.6354 12.3633 27.4891 12.309 27.3367 12.309H12.8557C12.7372 12.0092 12.4222 11.7938 12.0461 11.7938H3.42217ZM1.40992 13.3395H3.42217H12.0461H14.1133V23.6444H1.40992V13.3395ZM15.2632 13.3395H26.7617V16.431H15.2632V13.3395ZM3.13471 14.37C2.98223 14.37 2.836 14.4243 2.72819 14.5209C2.62037 14.6176 2.55979 14.7486 2.55978 14.8853V22.0987C2.55979 22.2354 2.62037 22.3664 2.72819 22.463C2.836 22.5596 2.98223 22.6139 3.13471 22.6139H12.3335C12.486 22.6139 12.6322 22.5596 12.7401 22.463C12.8479 22.3664 12.9084 22.2354 12.9085 22.0987V14.8853C12.9084 14.7486 12.8479 14.6176 12.7401 14.5209C12.6322 14.4243 12.486 14.37 12.3335 14.37H3.13471ZM17.5079 14.37C17.4317 14.3691 17.3561 14.3817 17.2854 14.4071C17.2147 14.4326 17.1503 14.4704 17.0961 14.5183C17.0418 14.5663 16.9987 14.6234 16.9693 14.6864C16.9399 14.7494 16.9248 14.817 16.9248 14.8853C16.9248 14.9535 16.9399 15.0211 16.9693 15.0841C16.9987 15.1471 17.0418 15.2043 17.0961 15.2522C17.1503 15.3001 17.2147 15.3379 17.2854 15.3634C17.3561 15.3889 17.4317 15.4015 17.5079 15.4005H24.407C24.4832 15.4015 24.5588 15.3889 24.6295 15.3634C24.7002 15.3379 24.7646 15.3001 24.8188 15.2522C24.8731 15.2043 24.9162 15.1471 24.9456 15.0841C24.975 15.0211 24.9901 14.9535 24.9901 14.8853C24.9901 14.817 24.975 14.7494 24.9456 14.6864C24.9162 14.6234 24.8731 14.5663 24.8188 14.5183C24.7646 14.4704 24.7002 14.4326 24.6295 14.4071C24.5588 14.3817 24.4832 14.3691 24.407 14.37H17.5079ZM3.70963 15.4005H11.7586V21.5835H3.70963V15.4005ZM15.2632 17.4615H26.7617V23.6444H15.2632V17.4615ZM17.4989 19.0002C17.3466 19.0023 17.2015 19.0585 17.0954 19.1564C16.9893 19.2544 16.9309 19.386 16.933 19.5225V22.0987C16.9319 22.167 16.9459 22.2348 16.9744 22.2981C17.0028 22.3615 17.0449 22.4192 17.0984 22.4678C17.1519 22.5164 17.2157 22.555 17.286 22.5814C17.3563 22.6077 17.4317 22.6213 17.5079 22.6213C17.5841 22.6213 17.6595 22.6077 17.7298 22.5814C17.8001 22.555 17.8638 22.5164 17.9173 22.4678C17.9708 22.4192 18.013 22.3615 18.0414 22.2981C18.0698 22.2348 18.0839 22.167 18.0828 22.0987V19.5225C18.0839 19.4535 18.0695 19.3851 18.0405 19.3213C18.0115 19.2574 17.9685 19.1994 17.9141 19.1507C17.8596 19.102 17.7948 19.0636 17.7235 19.0377C17.6522 19.0119 17.5758 18.9991 17.4989 19.0002Z"
           stroke-width="0.395022" mask="url(#path-1-outside-1_631_1791)"/>
</svg>
