<svg width="1072" height="1158" viewBox="0 0 1072 1158" fill="currentColor" xmlns="http://www.w3.org/2000/svg">
    <path fill-rule="evenodd" clip-rule="evenodd"
          d="M1071.88 363.283L538.081 0.713867L0.268555 363.13V1111.3H347.835V1111.45C410.359 1111.45 421.936 1105.01 501.155 1056.19C545.14 1097.96 600.899 1133.05 670.818 1157.17L714.555 1030.33C668.41 1014.42 631.195 992.326 601.303 965.948C676.122 869.478 718.051 722.944 703.224 508.797C702.414 497.092 699.428 464.962 679.722 432.651C658.11 397.215 620.184 367.821 562.736 359.454C499.127 350.19 450.971 376.263 420.049 413.287C392.297 446.515 379.207 487.042 372.556 513.503C352.024 595.191 341.542 723.37 377.4 847.403C387.354 881.833 400.949 916.038 418.873 948.781C415.362 951.753 412.26 954.655 409.303 957.422C395.181 970.636 384.342 980.777 347.867 980.782V980.734H130.835V432.59L537.792 158.354L941.318 432.436V980.734H824.343V1111.3H1071.88V363.283ZM569.38 518.064C580.459 678.071 555.677 780.899 519.039 847.314C514.147 835.13 509.92 822.711 506.287 810.142C478.466 713.911 486.511 610.511 502.673 546.207C507.719 526.133 514.766 509.176 523.022 499.29C526.552 495.064 529.179 493.506 530.78 492.839C532.045 492.311 535.548 491.074 543.4 492.218C553.448 493.681 558.425 496.328 560.592 497.763C562.761 499.199 564.098 500.736 565.18 502.509C568.012 507.153 569.053 513.345 569.38 518.064Z"/>
</svg>
