<svg width="11" height="23" viewBox="0 0 11 23" fill="none" xmlns="http://www.w3.org/2000/svg">
    <path fill-rule="evenodd" clip-rule="evenodd" d="M3.64943 1.90327C4.42121 0.884595 5.62314 0.167206 7.21076 0.422104C8.6446 0.652311 9.59119 1.46106 10.1306 2.43606C10.6224 3.32506 10.697 4.20909 10.7172 4.53114C11.0873 10.4232 10.0407 14.4549 8.17334 17.1092C8.91943 17.835 9.84828 18.4428 11 18.8806L9.90837 22.3704C8.16326 21.707 6.77157 20.7415 5.67376 19.5921C3.69653 20.9353 1.56052 21.2661 0 21.2661V17.5747C1.10176 17.5747 2.41699 17.355 3.62009 16.6369C3.17272 15.736 2.8334 14.7949 2.58497 13.8476C1.68999 10.4349 1.9516 6.90817 2.46406 4.66061C2.63006 3.93257 2.95678 2.81749 3.64943 1.90327ZM6.12012 13.8451C7.03457 12.0178 7.6531 9.18855 7.37659 4.78612C7.36843 4.65628 7.34243 4.48589 7.27175 4.35813C7.24475 4.30934 7.21139 4.26706 7.15724 4.22754C7.10316 4.18806 6.97894 4.11523 6.72815 4.07497C6.53216 4.0435 6.44473 4.07753 6.41316 4.09205C6.3732 4.11043 6.30763 4.15329 6.21954 4.26957C6.01346 4.54156 5.83758 5.00811 5.71165 5.56044C5.30825 7.32969 5.10747 10.1747 5.80184 12.8224C5.89253 13.1682 5.99802 13.5099 6.12012 13.8451Z" fill="#FF7D0C"/>
</svg>
