<svg width="32" height="41" viewBox="0 0 32 41" fill="none" xmlns="http://www.w3.org/2000/svg">
    <path d="M16 0C7.12727 0 0 7.00952 0 15.7714C0 29.0603 14.5455 40.1587 15.1273 40.5968C15.4182 40.7429 15.7091 40.8889 16 40.8889C16.2909 40.8889 16.5818 40.7429 16.8727 40.5968C17.4545 40.1587 32 28.9143 32 15.7714C32 7.00952 24.8727 0 16 0Z" fill="#02504D"/>
    <path fill-rule="evenodd" clip-rule="evenodd" d="M24.8889 12.0745L16.476 6.22217L8 12.0721V24.1485H13.4777V24.151C14.4631 24.151 14.6455 24.047 15.894 23.2589C16.5873 23.9333 17.466 24.4997 18.568 24.8888L19.2573 22.8416C18.53 22.5847 17.9435 22.2281 17.4724 21.8023C18.6515 20.2452 19.3124 17.8799 19.0787 14.4233C19.0659 14.2344 19.0189 13.7158 18.7083 13.1942C18.3677 12.6222 17.77 12.1478 16.8646 12.0127C15.8621 11.8632 15.1031 12.284 14.6158 12.8817C14.1784 13.418 13.9721 14.0722 13.8673 14.4993C13.5437 15.8178 13.3785 17.8868 13.9436 19.8889C14.1005 20.4446 14.3148 20.9967 14.5973 21.5252C14.5419 21.5732 14.493 21.6201 14.4464 21.6647C14.2238 21.878 14.053 22.0417 13.4782 22.0418V22.041H10.0577V13.1932L16.4715 8.7667L22.8311 13.1908V22.041H20.9876V24.1485H24.8889V12.0745ZM16.9693 14.5729C17.1439 17.1556 16.7533 18.8154 16.1759 19.8874C16.0988 19.6908 16.0322 19.4903 15.9749 19.2874C15.5364 17.7341 15.6632 16.0651 15.918 15.0272C15.9975 14.7031 16.1086 14.4294 16.2387 14.2699C16.2943 14.2017 16.3357 14.1765 16.3609 14.1657C16.3809 14.1572 16.4361 14.1373 16.5598 14.1557C16.7182 14.1793 16.7966 14.222 16.8308 14.2452C16.8649 14.2684 16.886 14.2932 16.9031 14.3218C16.9477 14.3968 16.9641 14.4967 16.9693 14.5729Z" fill="#02DB82"/>
</svg>
