<svg width="14" height="20" viewBox="0 0 14 20" fill="currentColor" xmlns="http://www.w3.org/2000/svg">
    <path d="M7 1.60742C6.21136 1.60776 5.43056 1.76392 4.70247 2.06694C3.97437 2.36996 3.31332 2.81387 2.75731 3.37315C1.63116 4.50592 0.999336 6.0385 1 7.63581C1 9.55073 1.49569 10.9438 3.40127 13.2779C4.28651 14.2843 5.06215 15.382 5.71508 16.5525C6.406 17.9598 6.32454 18.9151 7 18.9151C7.67546 18.9151 7.594 17.9598 8.28492 16.5525C8.93784 15.382 9.71348 14.2842 10.5987 13.2779C12.5043 10.9438 13 9.55061 13 7.63581C13.0006 6.03851 12.3688 4.50593 11.2427 3.37315C10.6867 2.81387 10.0256 2.36996 9.29753 2.06694C8.56944 1.76392 7.78864 1.60776 7 1.60742Z"
          stroke-width="1.38462"/>
    <path d="M7.00007 9.91519C8.27458 9.91519 9.30777 8.882 9.30777 7.6075C9.30777 6.33299 8.27458 5.2998 7.00007 5.2998C5.72557 5.2998 4.69238 6.33299 4.69238 7.6075C4.69238 8.882 5.72557 9.91519 7.00007 9.91519Z"
          stroke-width="1.38462"/>
</svg>
