<svg width="25" height="21" viewBox="0 0 25 21" fill="transparent" xmlns="http://www.w3.org/2000/svg">
    <mask id="path-1-outside-1_631_1878" maskUnits="userSpaceOnUse" x="-0.163696" y="-0.379883" width="26" height="21"
          fill="black">
        <rect fill="white" x="-0.163696" y="-0.379883" width="26" height="21"/>
        <path d="M23.0594 15.2543C23.6569 15.5127 24.2214 15.7565 24.8765 15.7565V16.8377C24.029 16.8377 23.3469 16.5431 22.6868 16.2587C22.0893 16.0003 21.5249 15.7565 20.8698 15.7565C20.2147 15.7565 19.6502 16.0003 19.0522 16.2582C18.3926 16.5431 17.7105 16.8377 16.8631 16.8377C16.0157 16.8377 15.3335 16.5431 14.6734 16.2587C14.0759 16.0003 13.5115 15.7565 12.8564 15.7565C12.2013 15.7565 11.6368 16.0003 11.0388 16.2582C10.3792 16.5431 9.6971 16.8377 8.84969 16.8377C8.00227 16.8377 7.32013 16.5431 6.66003 16.2587C6.06253 16.0003 5.49809 15.7565 4.843 15.7565C4.1879 15.7565 3.62346 16.0003 3.02546 16.2582C2.36586 16.5431 1.68372 16.8377 0.836304 16.8377V15.7565C1.4909 15.7565 2.05584 15.5127 2.65334 15.2543C3.31294 14.97 3.99508 14.6753 4.843 14.6753C5.69041 14.6753 6.37255 14.97 7.03265 15.2543C7.63015 15.5127 8.19459 15.7565 8.84969 15.7565C9.50428 15.7565 10.0692 15.5127 10.6667 15.2543C11.3263 14.97 12.0085 14.6753 12.8564 14.6753C13.7038 14.6753 14.3859 14.97 15.046 15.2543C15.6435 15.5127 16.208 15.7565 16.8631 15.7565C17.5177 15.7565 18.0826 15.5127 18.6801 15.2543C19.3397 14.97 20.0218 14.6753 20.8698 14.6753C21.7172 14.6753 22.3993 14.97 23.0594 15.2543ZM20.8698 17.9189C20.0218 17.9189 19.3397 18.2135 18.6801 18.4978C18.0826 18.7562 17.5177 19 16.8631 19C16.208 19 15.6435 18.7562 15.046 18.4978C14.3859 18.2135 13.7038 17.9189 12.8564 17.9189C12.0085 17.9189 11.3263 18.2135 10.6667 18.4978C10.0692 18.7562 9.50428 19 8.84969 19C8.19459 19 7.63015 18.7562 7.03265 18.4978C6.37255 18.2135 5.69041 17.9189 4.843 17.9189C3.99508 17.9189 3.31294 18.2135 2.65334 18.4978C2.05584 18.7562 1.4909 19 0.836304 19V20.0812C1.68372 20.0812 2.36586 19.7866 3.02546 19.5017C3.62346 19.2438 4.1879 19 4.843 19C5.49809 19 6.06253 19.2438 6.66003 19.5022C7.32013 19.7866 8.00227 20.0812 8.84969 20.0812C9.6971 20.0812 10.3792 19.7866 11.0388 19.5017C11.6368 19.2438 12.2013 19 12.8564 19C13.5115 19 14.0759 19.2438 14.6734 19.5022C15.3335 19.7866 16.0157 20.0812 16.8631 20.0812C17.7105 20.0812 18.3926 19.7866 19.0522 19.5017C19.6502 19.2438 20.2147 19 20.8698 19C21.5249 19 22.0893 19.2438 22.6868 19.5022C23.3469 19.7866 24.029 20.0812 24.8765 20.0812V19C24.2214 19 23.6569 18.7562 23.0594 18.4978C22.3993 18.2135 21.7172 17.9189 20.8698 17.9189ZM17.3639 7.10714V12.4649C17.8172 12.3822 18.2399 12.2011 18.6801 12.0113C19.3397 11.7264 20.0218 11.4318 20.8698 11.4318C21.7172 11.4318 22.3993 11.7264 23.0594 12.0108C23.6569 12.2692 24.2214 12.513 24.8765 12.513V13.5942C24.029 13.5942 23.3469 13.2996 22.6868 13.0152C22.0893 12.7568 21.5249 12.513 20.8698 12.513C20.2147 12.513 19.6502 12.7568 19.0522 13.0147C18.3926 13.2996 17.7105 13.5942 16.8631 13.5942C16.0157 13.5942 15.3335 13.2996 14.6734 13.0152C14.0759 12.7568 13.5115 12.513 12.8564 12.513C12.2013 12.513 11.6368 12.7568 11.0388 13.0147C10.3792 13.2996 9.6971 13.5942 8.84969 13.5942C8.00227 13.5942 7.32013 13.2996 6.66003 13.0152C6.06253 12.7568 5.49809 12.513 4.843 12.513C4.1879 12.513 3.62346 12.7568 3.02546 13.0147C2.36586 13.2996 1.68372 13.5942 0.836304 13.5942V12.513C1.4909 12.513 2.05584 12.2692 2.65334 12.0108C3.31294 11.7264 3.99508 11.4318 4.843 11.4318C5.69041 11.4318 6.37255 11.7264 7.03265 12.0108C7.47289 12.2011 7.8956 12.3816 8.34885 12.4643V7.10714H0.836304V6.02597H5.34383V2.78246C5.34383 1.58993 6.24233 0.620117 7.34718 0.620117C8.45202 0.620117 9.35052 1.58993 9.35052 2.78246V6.02597H13.3572V2.78246C13.3572 1.58993 14.2557 0.620117 15.3606 0.620117C16.4654 0.620117 17.3639 1.58993 17.3639 2.78246V6.02597H24.8765V7.10714H17.3639ZM14.3589 6.02597H16.3622V2.78246C16.3622 2.18619 15.913 1.70129 15.3606 1.70129C14.8081 1.70129 14.3589 2.18619 14.3589 2.78246V6.02597ZM8.34885 6.02597V2.78246C8.34885 2.18619 7.8996 1.70129 7.34718 1.70129C6.79476 1.70129 6.34551 2.18619 6.34551 2.78246V6.02597H8.34885ZM15.046 12.0108C15.4863 12.2011 15.909 12.3816 16.3622 12.4643V10.3507H9.35052V12.4649C9.80378 12.3822 10.2265 12.2011 10.6667 12.0113C11.3263 11.7264 12.0085 11.4318 12.8564 11.4318C13.7038 11.4318 14.3859 11.7264 15.046 12.0108ZM16.3622 7.10714H9.35052V9.26948H16.3622V7.10714Z"/>
    </mask>
    <path d="M23.0594 15.2543C23.6569 15.5127 24.2214 15.7565 24.8765 15.7565V16.8377C24.029 16.8377 23.3469 16.5431 22.6868 16.2587C22.0893 16.0003 21.5249 15.7565 20.8698 15.7565C20.2147 15.7565 19.6502 16.0003 19.0522 16.2582C18.3926 16.5431 17.7105 16.8377 16.8631 16.8377C16.0157 16.8377 15.3335 16.5431 14.6734 16.2587C14.0759 16.0003 13.5115 15.7565 12.8564 15.7565C12.2013 15.7565 11.6368 16.0003 11.0388 16.2582C10.3792 16.5431 9.6971 16.8377 8.84969 16.8377C8.00227 16.8377 7.32013 16.5431 6.66003 16.2587C6.06253 16.0003 5.49809 15.7565 4.843 15.7565C4.1879 15.7565 3.62346 16.0003 3.02546 16.2582C2.36586 16.5431 1.68372 16.8377 0.836304 16.8377V15.7565C1.4909 15.7565 2.05584 15.5127 2.65334 15.2543C3.31294 14.97 3.99508 14.6753 4.843 14.6753C5.69041 14.6753 6.37255 14.97 7.03265 15.2543C7.63015 15.5127 8.19459 15.7565 8.84969 15.7565C9.50428 15.7565 10.0692 15.5127 10.6667 15.2543C11.3263 14.97 12.0085 14.6753 12.8564 14.6753C13.7038 14.6753 14.3859 14.97 15.046 15.2543C15.6435 15.5127 16.208 15.7565 16.8631 15.7565C17.5177 15.7565 18.0826 15.5127 18.6801 15.2543C19.3397 14.97 20.0218 14.6753 20.8698 14.6753C21.7172 14.6753 22.3993 14.97 23.0594 15.2543ZM20.8698 17.9189C20.0218 17.9189 19.3397 18.2135 18.6801 18.4978C18.0826 18.7562 17.5177 19 16.8631 19C16.208 19 15.6435 18.7562 15.046 18.4978C14.3859 18.2135 13.7038 17.9189 12.8564 17.9189C12.0085 17.9189 11.3263 18.2135 10.6667 18.4978C10.0692 18.7562 9.50428 19 8.84969 19C8.19459 19 7.63015 18.7562 7.03265 18.4978C6.37255 18.2135 5.69041 17.9189 4.843 17.9189C3.99508 17.9189 3.31294 18.2135 2.65334 18.4978C2.05584 18.7562 1.4909 19 0.836304 19V20.0812C1.68372 20.0812 2.36586 19.7866 3.02546 19.5017C3.62346 19.2438 4.1879 19 4.843 19C5.49809 19 6.06253 19.2438 6.66003 19.5022C7.32013 19.7866 8.00227 20.0812 8.84969 20.0812C9.6971 20.0812 10.3792 19.7866 11.0388 19.5017C11.6368 19.2438 12.2013 19 12.8564 19C13.5115 19 14.0759 19.2438 14.6734 19.5022C15.3335 19.7866 16.0157 20.0812 16.8631 20.0812C17.7105 20.0812 18.3926 19.7866 19.0522 19.5017C19.6502 19.2438 20.2147 19 20.8698 19C21.5249 19 22.0893 19.2438 22.6868 19.5022C23.3469 19.7866 24.029 20.0812 24.8765 20.0812V19C24.2214 19 23.6569 18.7562 23.0594 18.4978C22.3993 18.2135 21.7172 17.9189 20.8698 17.9189ZM17.3639 7.10714V12.4649C17.8172 12.3822 18.2399 12.2011 18.6801 12.0113C19.3397 11.7264 20.0218 11.4318 20.8698 11.4318C21.7172 11.4318 22.3993 11.7264 23.0594 12.0108C23.6569 12.2692 24.2214 12.513 24.8765 12.513V13.5942C24.029 13.5942 23.3469 13.2996 22.6868 13.0152C22.0893 12.7568 21.5249 12.513 20.8698 12.513C20.2147 12.513 19.6502 12.7568 19.0522 13.0147C18.3926 13.2996 17.7105 13.5942 16.8631 13.5942C16.0157 13.5942 15.3335 13.2996 14.6734 13.0152C14.0759 12.7568 13.5115 12.513 12.8564 12.513C12.2013 12.513 11.6368 12.7568 11.0388 13.0147C10.3792 13.2996 9.6971 13.5942 8.84969 13.5942C8.00227 13.5942 7.32013 13.2996 6.66003 13.0152C6.06253 12.7568 5.49809 12.513 4.843 12.513C4.1879 12.513 3.62346 12.7568 3.02546 13.0147C2.36586 13.2996 1.68372 13.5942 0.836304 13.5942V12.513C1.4909 12.513 2.05584 12.2692 2.65334 12.0108C3.31294 11.7264 3.99508 11.4318 4.843 11.4318C5.69041 11.4318 6.37255 11.7264 7.03265 12.0108C7.47289 12.2011 7.8956 12.3816 8.34885 12.4643V7.10714H0.836304V6.02597H5.34383V2.78246C5.34383 1.58993 6.24233 0.620117 7.34718 0.620117C8.45202 0.620117 9.35052 1.58993 9.35052 2.78246V6.02597H13.3572V2.78246C13.3572 1.58993 14.2557 0.620117 15.3606 0.620117C16.4654 0.620117 17.3639 1.58993 17.3639 2.78246V6.02597H24.8765V7.10714H17.3639ZM14.3589 6.02597H16.3622V2.78246C16.3622 2.18619 15.913 1.70129 15.3606 1.70129C14.8081 1.70129 14.3589 2.18619 14.3589 2.78246V6.02597ZM8.34885 6.02597V2.78246C8.34885 2.18619 7.8996 1.70129 7.34718 1.70129C6.79476 1.70129 6.34551 2.18619 6.34551 2.78246V6.02597H8.34885ZM15.046 12.0108C15.4863 12.2011 15.909 12.3816 16.3622 12.4643V10.3507H9.35052V12.4649C9.80378 12.3822 10.2265 12.2011 10.6667 12.0113C11.3263 11.7264 12.0085 11.4318 12.8564 11.4318C13.7038 11.4318 14.3859 11.7264 15.046 12.0108ZM16.3622 7.10714H9.35052V9.26948H16.3622V7.10714Z"
          fill="currentColor"/>
    <path d="M23.0594 15.2543C23.6569 15.5127 24.2214 15.7565 24.8765 15.7565V16.8377C24.029 16.8377 23.3469 16.5431 22.6868 16.2587C22.0893 16.0003 21.5249 15.7565 20.8698 15.7565C20.2147 15.7565 19.6502 16.0003 19.0522 16.2582C18.3926 16.5431 17.7105 16.8377 16.8631 16.8377C16.0157 16.8377 15.3335 16.5431 14.6734 16.2587C14.0759 16.0003 13.5115 15.7565 12.8564 15.7565C12.2013 15.7565 11.6368 16.0003 11.0388 16.2582C10.3792 16.5431 9.6971 16.8377 8.84969 16.8377C8.00227 16.8377 7.32013 16.5431 6.66003 16.2587C6.06253 16.0003 5.49809 15.7565 4.843 15.7565C4.1879 15.7565 3.62346 16.0003 3.02546 16.2582C2.36586 16.5431 1.68372 16.8377 0.836304 16.8377V15.7565C1.4909 15.7565 2.05584 15.5127 2.65334 15.2543C3.31294 14.97 3.99508 14.6753 4.843 14.6753C5.69041 14.6753 6.37255 14.97 7.03265 15.2543C7.63015 15.5127 8.19459 15.7565 8.84969 15.7565C9.50428 15.7565 10.0692 15.5127 10.6667 15.2543C11.3263 14.97 12.0085 14.6753 12.8564 14.6753C13.7038 14.6753 14.3859 14.97 15.046 15.2543C15.6435 15.5127 16.208 15.7565 16.8631 15.7565C17.5177 15.7565 18.0826 15.5127 18.6801 15.2543C19.3397 14.97 20.0218 14.6753 20.8698 14.6753C21.7172 14.6753 22.3993 14.97 23.0594 15.2543ZM20.8698 17.9189C20.0218 17.9189 19.3397 18.2135 18.6801 18.4978C18.0826 18.7562 17.5177 19 16.8631 19C16.208 19 15.6435 18.7562 15.046 18.4978C14.3859 18.2135 13.7038 17.9189 12.8564 17.9189C12.0085 17.9189 11.3263 18.2135 10.6667 18.4978C10.0692 18.7562 9.50428 19 8.84969 19C8.19459 19 7.63015 18.7562 7.03265 18.4978C6.37255 18.2135 5.69041 17.9189 4.843 17.9189C3.99508 17.9189 3.31294 18.2135 2.65334 18.4978C2.05584 18.7562 1.4909 19 0.836304 19V20.0812C1.68372 20.0812 2.36586 19.7866 3.02546 19.5017C3.62346 19.2438 4.1879 19 4.843 19C5.49809 19 6.06253 19.2438 6.66003 19.5022C7.32013 19.7866 8.00227 20.0812 8.84969 20.0812C9.6971 20.0812 10.3792 19.7866 11.0388 19.5017C11.6368 19.2438 12.2013 19 12.8564 19C13.5115 19 14.0759 19.2438 14.6734 19.5022C15.3335 19.7866 16.0157 20.0812 16.8631 20.0812C17.7105 20.0812 18.3926 19.7866 19.0522 19.5017C19.6502 19.2438 20.2147 19 20.8698 19C21.5249 19 22.0893 19.2438 22.6868 19.5022C23.3469 19.7866 24.029 20.0812 24.8765 20.0812V19C24.2214 19 23.6569 18.7562 23.0594 18.4978C22.3993 18.2135 21.7172 17.9189 20.8698 17.9189ZM17.3639 7.10714V12.4649C17.8172 12.3822 18.2399 12.2011 18.6801 12.0113C19.3397 11.7264 20.0218 11.4318 20.8698 11.4318C21.7172 11.4318 22.3993 11.7264 23.0594 12.0108C23.6569 12.2692 24.2214 12.513 24.8765 12.513V13.5942C24.029 13.5942 23.3469 13.2996 22.6868 13.0152C22.0893 12.7568 21.5249 12.513 20.8698 12.513C20.2147 12.513 19.6502 12.7568 19.0522 13.0147C18.3926 13.2996 17.7105 13.5942 16.8631 13.5942C16.0157 13.5942 15.3335 13.2996 14.6734 13.0152C14.0759 12.7568 13.5115 12.513 12.8564 12.513C12.2013 12.513 11.6368 12.7568 11.0388 13.0147C10.3792 13.2996 9.6971 13.5942 8.84969 13.5942C8.00227 13.5942 7.32013 13.2996 6.66003 13.0152C6.06253 12.7568 5.49809 12.513 4.843 12.513C4.1879 12.513 3.62346 12.7568 3.02546 13.0147C2.36586 13.2996 1.68372 13.5942 0.836304 13.5942V12.513C1.4909 12.513 2.05584 12.2692 2.65334 12.0108C3.31294 11.7264 3.99508 11.4318 4.843 11.4318C5.69041 11.4318 6.37255 11.7264 7.03265 12.0108C7.47289 12.2011 7.8956 12.3816 8.34885 12.4643V7.10714H0.836304V6.02597H5.34383V2.78246C5.34383 1.58993 6.24233 0.620117 7.34718 0.620117C8.45202 0.620117 9.35052 1.58993 9.35052 2.78246V6.02597H13.3572V2.78246C13.3572 1.58993 14.2557 0.620117 15.3606 0.620117C16.4654 0.620117 17.3639 1.58993 17.3639 2.78246V6.02597H24.8765V7.10714H17.3639ZM14.3589 6.02597H16.3622V2.78246C16.3622 2.18619 15.913 1.70129 15.3606 1.70129C14.8081 1.70129 14.3589 2.18619 14.3589 2.78246V6.02597ZM8.34885 6.02597V2.78246C8.34885 2.18619 7.8996 1.70129 7.34718 1.70129C6.79476 1.70129 6.34551 2.18619 6.34551 2.78246V6.02597H8.34885ZM15.046 12.0108C15.4863 12.2011 15.909 12.3816 16.3622 12.4643V10.3507H9.35052V12.4649C9.80378 12.3822 10.2265 12.2011 10.6667 12.0113C11.3263 11.7264 12.0085 11.4318 12.8564 11.4318C13.7038 11.4318 14.3859 11.7264 15.046 12.0108ZM16.3622 7.10714H9.35052V9.26948H16.3622V7.10714Z"
          stroke="currentColor" stroke-width="0.204564" mask="url(#path-1-outside-1_631_1878)"/>
</svg>
