<svg width="40" height="37" viewBox="0 0 40 37" fill="none" xmlns="http://www.w3.org/2000/svg">
<path d="M39.5326 34.9647L37.6241 33.2692C38.929 31.6714 39.6391 29.5942 39.6391 27.3216C39.6391 23.9129 37.6507 20.9214 34.6678 19.2079C34.8986 18.2049 35.1561 16.7579 35.1561 15.6128C35.1561 7.06413 27.3978 0.104858 17.8638 0.104858C8.3298 0.104858 0.571522 7.06413 0.571522 15.6128C0.571522 19.421 1.8143 22.9097 4.08679 25.5104L0.598155 28.6084C0.207569 28.9546 0.0833003 29.4961 0.278589 29.9754C0.482758 30.4637 0.962108 30.7566 1.47696 30.7211C2.86177 30.6412 5.28515 30.2062 9.00435 28.5906L9.32392 28.4309C11.694 29.8157 14.3307 31.1117 17.8548 31.1117H18.2454C18.423 31.1117 18.6094 31.1205 18.7869 31.1205C18.9023 31.1205 18.9911 31.1205 19.0887 31.1117C20.731 34.5382 24.5213 36.9438 28.9245 36.9438C31.055 36.9438 32.6528 36.1892 34.0908 35.3548L34.1884 35.3992C36.4521 36.3756 37.9434 36.642 38.8043 36.6952C39.257 36.7396 39.6299 36.4733 39.7897 36.0738C39.9583 35.701 39.8518 35.2572 39.5322 34.9642L39.5326 34.9647ZM29.7505 32.7011C29.7416 32.7188 29.7327 32.7455 29.7149 32.7632C29.7061 32.7721 29.7061 32.781 29.6972 32.7898C29.6883 32.8076 29.6706 32.8253 29.6617 32.8431C29.6084 32.9141 29.5552 32.9674 29.4841 33.0206C29.4664 33.0384 29.4486 33.0473 29.4309 33.0561C29.422 33.065 29.4131 33.065 29.4043 33.0739C29.3865 33.0828 29.3599 33.0917 29.3421 33.1094C29.2267 33.1627 29.1024 33.1982 28.9693 33.1982C28.8628 33.1982 28.7651 33.1804 28.6763 33.1449C28.6497 33.136 28.6231 33.1272 28.5965 33.1094C28.5698 33.1005 28.5432 33.0828 28.5254 33.065C28.4633 33.0295 28.41 32.9851 28.3657 32.9319C28.2059 32.7721 28.1082 32.559 28.1082 32.3193C28.1082 31.84 28.4988 31.4494 28.9782 31.4494C29.0847 31.4494 29.1824 31.4671 29.28 31.5026C29.3066 31.5115 29.3333 31.5204 29.3599 31.5382C29.3865 31.547 29.4043 31.5648 29.4309 31.5825C29.5463 31.6536 29.6528 31.7512 29.7238 31.8755C29.7416 31.9021 29.7505 31.9199 29.7682 31.9465C29.8215 32.0619 29.857 32.1862 29.857 32.3193C29.8304 32.4613 29.8037 32.5857 29.7505 32.7011ZM31.4815 28.1916C31.4104 28.2626 31.3394 28.3247 31.2684 28.3958C31.2329 28.4313 31.1974 28.4579 31.153 28.4845C31.0731 28.5467 30.9932 28.5999 30.9133 28.6532C30.8334 28.7064 30.7447 28.7597 30.6648 28.8041C30.576 28.8485 30.4872 28.8929 30.3985 28.9372C30.1766 29.0349 29.9369 29.1148 29.6883 29.1592V30.1356C29.6883 30.5084 29.3865 30.8191 29.0048 30.8191C28.6231 30.8191 28.3213 30.5173 28.3213 30.1356V28.5466C28.3213 28.1738 28.6231 27.8631 29.0048 27.8631C30.1677 27.8631 31.1175 26.9133 31.1175 25.7504C31.1175 24.5876 30.1765 23.6466 29.0048 23.6466C27.8419 23.6466 26.901 24.5964 26.901 25.7504C26.901 26.1233 26.5992 26.434 26.2175 26.434C25.8358 26.434 25.5339 26.1321 25.5339 25.7504C25.5339 24.7917 25.9245 23.9307 26.5548 23.3004L26.6169 23.2383C26.6347 23.2205 26.6613 23.2028 26.6791 23.185C26.7234 23.1495 26.759 23.114 26.8033 23.0785L26.9365 22.972C26.9809 22.9365 27.0253 22.9098 27.0696 22.8743C27.62 22.5015 28.2947 22.2796 29.0048 22.2796C29.786 22.2796 30.505 22.537 31.082 22.9719C31.1264 23.0075 31.1708 23.043 31.2152 23.0785C31.2595 23.114 31.3039 23.1495 31.3394 23.185C31.3572 23.2028 31.3838 23.2205 31.4016 23.2383C31.4193 23.256 31.446 23.2738 31.4637 23.3004C32.094 23.9307 32.4846 24.7917 32.4846 25.7504C32.4757 26.7002 32.0939 27.5613 31.4815 28.1916ZM33.4166 18.5958C32.9905 18.4182 32.5467 18.2585 32.0939 18.1342C31.0997 17.8501 30.0345 17.6992 28.9338 17.6992C27.8242 17.6992 26.7589 17.8501 25.7558 18.1342C25.5073 18.2052 25.2587 18.2851 25.019 18.365C24.7794 18.4538 24.5397 18.5425 24.3 18.649C24.2201 18.6846 24.1402 18.7201 24.0692 18.7556C23.9183 18.8266 23.7674 18.8976 23.6165 18.9775C23.4656 19.0574 23.3236 19.1373 23.1727 19.2172C22.7377 19.4657 22.3293 19.7498 21.9388 20.0516C21.8767 20.1048 21.8056 20.1581 21.7435 20.2025C19.5864 21.969 18.2371 24.5078 18.2371 27.3308C18.2371 28.1742 18.3703 28.9908 18.6011 29.772H18.2904H17.8821C16.8967 29.772 16.0002 29.6655 15.148 29.4702C15.1302 29.4702 15.1036 29.4613 15.0858 29.4524C14.8373 29.3992 14.5976 29.337 14.3668 29.266C14.2958 29.2482 14.2248 29.2216 14.1627 29.2039C14.1005 29.1861 14.0473 29.1684 13.9851 29.1506C13.1774 28.8843 12.4228 28.5558 11.686 28.183C11.5795 28.1298 11.473 28.0765 11.3753 28.0232C10.8161 27.7303 10.2657 27.4107 9.72422 27.0912C9.69759 27.0734 9.67096 27.0645 9.64433 27.0468C9.46679 26.9758 9.26262 26.9757 9.07621 27.0645L8.45481 27.3752C6.79485 28.0942 5.41004 28.5647 4.28266 28.8754C3.95422 28.9642 3.64355 29.0441 3.35058 29.1062C3.23518 29.1328 3.11978 29.1595 3.01326 29.1772C2.79133 29.2216 2.58716 29.2571 2.40073 29.2838C2.34747 29.2926 2.30309 29.3015 2.2587 29.3015C2.11667 29.3193 1.99239 29.337 1.86811 29.3459L5.53427 26.0881C5.56978 26.0614 5.59641 26.0259 5.62304 25.9815C5.64967 25.946 5.6763 25.9016 5.69406 25.8661C5.72956 25.7862 5.75619 25.6975 5.75619 25.5998C5.75619 25.5288 5.74732 25.4489 5.72956 25.3779V25.369C5.72069 25.3513 5.71181 25.3335 5.71181 25.3069C5.69406 25.2714 5.6763 25.227 5.64967 25.1915C5.62304 25.156 5.59641 25.1205 5.56978 25.0938C5.48989 25.0139 5.41887 24.9341 5.34786 24.8542C5.2147 24.7121 5.09043 24.5612 4.96615 24.4192C4.76198 24.1706 4.56669 23.9132 4.38026 23.6558C4.25598 23.4871 4.14058 23.3096 4.03406 23.1321C3.44817 22.2 2.97772 21.1791 2.64039 20.0961C2.596 19.9364 2.54274 19.7855 2.50723 19.6257C2.41847 19.3061 2.34745 18.9865 2.27644 18.6669C2.08114 17.6905 1.97462 16.6696 1.97462 15.631C1.97462 14.5924 2.0989 13.5805 2.33857 12.6129C2.46285 12.098 2.62264 11.592 2.80907 11.1038C2.87121 10.944 2.94222 10.7754 3.00436 10.6156C3.04875 10.5091 3.09313 10.4026 3.14639 10.296C3.17302 10.2428 3.19966 10.1895 3.21741 10.1362C3.27067 10.0297 3.31505 9.9232 3.37719 9.82556C3.51035 9.56813 3.65238 9.3107 3.80328 9.05328C3.95419 8.80472 4.11397 8.55615 4.27378 8.30763C4.50458 7.9703 4.75314 7.63297 5.01943 7.31341C5.13483 7.18026 5.25023 7.03823 5.36563 6.90508C5.56092 6.68315 5.76509 6.46123 5.97815 6.25705C8.89867 3.33654 13.1597 1.49028 17.891 1.49028C19.1959 1.49028 20.4653 1.63231 21.6726 1.88974C21.8678 1.93413 22.0543 1.97851 22.2407 2.0229C22.6135 2.12054 22.9863 2.22707 23.3591 2.34246C25.8003 3.14138 27.9573 4.44629 29.6794 6.12402C29.7238 6.16841 29.7682 6.20391 29.8037 6.2483C30.3097 6.75429 30.7801 7.29578 31.2062 7.8639C31.2772 7.96155 31.3482 8.05032 31.4104 8.14796C31.4814 8.24561 31.5435 8.34326 31.6145 8.4409C31.6767 8.53854 31.7477 8.63619 31.8098 8.73384C31.9341 8.92913 32.0584 9.1333 32.1738 9.33746C32.2271 9.4351 32.2892 9.54163 32.3424 9.64815C32.449 9.85232 32.5555 10.0654 32.6531 10.2784C32.6975 10.3672 32.733 10.4559 32.7774 10.5536C32.7952 10.5891 32.804 10.6157 32.8218 10.6512C32.8573 10.74 32.9017 10.8376 32.9372 10.9264C32.9816 11.0329 33.026 11.1483 33.0615 11.2549C33.1059 11.3614 33.1414 11.4768 33.1769 11.5833C33.2834 11.9029 33.3811 12.2313 33.4609 12.5597C33.4698 12.5864 33.4787 12.613 33.4787 12.6396C33.7095 13.5984 33.8338 14.6014 33.8338 15.6223C33.7983 16.4922 33.6208 17.6459 33.4166 18.5958Z" fill="#02DB82"/>
<path d="M24.3749 14.081C26.4309 14.9333 25.1525 18.0175 23.0964 17.1652C21.0404 16.3147 22.3188 13.2305 24.3749 14.081Z" fill="#02DB82"/>
<path d="M19.3205 15.6224C19.3205 17.8472 15.9824 17.8472 15.9824 15.6224C15.9824 13.3976 19.3205 13.3976 19.3205 15.6224Z" fill="#02DB82"/>
<path d="M13.3193 15.0451C13.2927 14.9652 13.2572 14.8941 13.2217 14.8231C13.195 14.7787 13.1684 14.7343 13.1418 14.69C13.0796 14.6012 13.0086 14.5213 12.9376 14.4414C12.6357 14.1395 12.2185 13.9531 11.7568 13.9531C10.8335 13.9531 10.0878 14.6988 10.0878 15.6221C10.0878 16.5455 10.8335 17.2912 11.7568 17.2912C12.2185 17.2912 12.6357 17.1047 12.9376 16.8029C13.0086 16.7319 13.0796 16.6431 13.1418 16.5543C13.1684 16.5099 13.195 16.4656 13.2217 16.4212C13.2572 16.3501 13.2927 16.2791 13.3193 16.1992C13.3371 16.1459 13.3548 16.0927 13.3637 16.0394C13.3992 15.9062 13.417 15.7642 13.417 15.6222C13.417 15.4801 13.3992 15.3381 13.3637 15.2049C13.3548 15.1516 13.3371 15.0983 13.3193 15.0451Z" fill="#02DB82"/>
</svg>
