<svg width="20" height="18" viewBox="0 0 20 18" fill="none" xmlns="http://www.w3.org/2000/svg">
    <path d="M8.83269 2.2726C9.48462 2.37017 10.0772 2.67527 10.5048 3.13347C10.9324 3.59167 11.1672 4.17317 11.1672 4.77423V6.46452H5.59331V4.77423C5.59331 3.89613 6.08381 3.12197 6.82886 2.66729C6.5613 2.45054 6.23056 2.3088 5.87648 2.25912C5.52241 2.20945 5.1601 2.25396 4.83319 2.3873C4.50628 2.52064 4.22872 2.73712 4.03394 3.01067C3.83915 3.28422 3.73545 3.60316 3.73533 3.92909V8.99996H18.5991C18.8455 8.99996 19.0818 9.089 19.256 9.2475C19.4303 9.40599 19.5281 9.62096 19.5281 9.8451C19.5281 10.0693 19.4303 10.2842 19.256 10.4427C19.0818 10.6012 18.8455 10.6902 18.5991 10.6902V11.5354C18.5993 12.5843 18.242 13.6074 17.5765 14.4639C16.9111 15.3204 15.9701 15.9682 14.8832 16.3181V16.6063C14.8832 16.8304 14.7853 17.0454 14.6111 17.2039C14.4369 17.3624 14.2006 17.4514 13.9542 17.4514C13.7078 17.4514 13.4715 17.3624 13.2973 17.2039C13.1231 17.0454 13.0252 16.8304 13.0252 16.6063H7.45129C7.45129 16.8304 7.35341 17.0454 7.17919 17.2039C7.00497 17.3624 6.76868 17.4514 6.5223 17.4514C6.27591 17.4514 6.03962 17.3624 5.8654 17.2039C5.69118 17.0454 5.59331 16.8304 5.59331 16.6063V16.3181C4.5064 15.9682 3.56543 15.3204 2.89995 14.4639C2.23448 13.6074 1.87721 12.5843 1.87735 11.5354V10.6902C1.63097 10.6902 1.39468 10.6012 1.22046 10.4427C1.04624 10.2842 0.948364 10.0693 0.948364 9.8451C0.948364 9.62096 1.04624 9.40599 1.22046 9.2475C1.39468 9.089 1.63097 8.99996 1.87735 8.99996V3.92909C1.87731 3.18154 2.14963 2.45507 2.65171 1.86331C3.15379 1.27154 3.85732 0.847865 4.65223 0.658548C5.44715 0.46923 6.28862 0.524952 7.04503 0.816995C7.80143 1.10904 8.4301 1.62093 8.83269 2.2726ZM16.7412 10.6902H3.73533V11.5354C3.73533 12.432 4.12683 13.2918 4.82371 13.9258C5.52059 14.5598 6.46575 14.916 7.45129 14.916H13.0252C14.0108 14.916 14.9559 14.5598 15.6528 13.9258C16.3497 13.2918 16.7412 12.432 16.7412 11.5354V10.6902ZM8.38027 3.92909C8.13389 3.92909 7.8976 4.01813 7.72338 4.17662C7.54916 4.33512 7.45129 4.55009 7.45129 4.77423H9.30926C9.30926 4.55009 9.21139 4.33512 9.03717 4.17662C8.86295 4.01813 8.62666 3.92909 8.38027 3.92909Z" fill="#02504D"/>
</svg>
