<svg width="20" height="22" viewBox="0 0 20 22" fill="transparent" xmlns="http://www.w3.org/2000/svg">
    <path fill-rule="evenodd" clip-rule="evenodd"
          d="M10.2039 1.58594C10.1572 1.57082 10.107 1.57082 10.0603 1.58594L2.36288 4.08362C2.31602 4.09864 2.27515 4.12814 2.24614 4.16788C2.21713 4.20762 2.20149 4.25555 2.20146 4.30475V8.99129C2.20146 14.0865 5.26176 17.8391 10.0668 19.6519C10.1089 19.6677 10.1553 19.6677 10.1974 19.6519C15.0024 17.8391 18.0627 14.0865 18.0627 8.99129V4.30381C18.0626 4.25465 18.0469 4.20679 18.0179 4.16708C17.9889 4.12737 17.9481 4.09783 17.9013 4.08269L10.2039 1.58594ZM9.62827 0.255459C9.95575 0.149222 10.3084 0.149222 10.6359 0.255459L18.3333 2.75128C18.6613 2.85768 18.9472 3.06522 19.15 3.34412C19.3528 3.62302 19.4621 3.95897 19.4623 4.30381V8.99129C19.4623 14.7667 15.9448 18.9792 10.691 20.9619C10.3307 21.0976 9.93344 21.0976 9.57322 20.9619C4.32034 18.9783 0.801941 14.7667 0.801941 8.99129V4.30381C0.801941 3.59472 1.25912 2.9696 1.93089 2.75128L9.62827 0.255459ZM11.0651 10.6073C11.4208 10.4019 11.6988 10.0848 11.856 9.70534C12.0132 9.32584 12.0408 8.90508 11.9345 8.50831C11.8281 8.11155 11.5939 7.76095 11.268 7.51089C10.9421 7.26082 10.5429 7.12527 10.1321 7.12525C9.72133 7.12527 9.32205 7.26082 8.99618 7.51089C8.67031 7.76095 8.43605 8.11155 8.32973 8.50831C8.22342 8.90508 8.25099 9.32584 8.40817 9.70534C8.56535 10.0848 8.84336 10.4019 9.19908 10.6073V13.1899C9.19908 13.4373 9.29738 13.6746 9.47235 13.8496C9.64733 14.0246 9.88465 14.1229 10.1321 14.1229C10.3795 14.1229 10.6169 14.0246 10.7918 13.8496C10.9668 13.6746 11.0651 13.4373 11.0651 13.1899V10.6073Z"
          fill="currentColor"/>
</svg>
