<svg width="23" height="14" viewBox="0 0 23 14" fill="none" xmlns="http://www.w3.org/2000/svg">
    <path d="M2.60209 13.6501V12.3599H20.5825V13.6501V13.7599H20.6923H22.0923H22.2021V13.6501V5.9501C22.2021 5.02321 21.6148 4.23193 20.8021 3.90572V2.4501C20.8021 1.23828 19.8041 0.240294 18.5923 0.240294H4.59229C3.38047 0.240294 2.38248 1.23828 2.38248 2.4501V3.90572C1.56973 4.23193 0.982481 5.02321 0.982481 5.9501V13.6501V13.7599H1.09229H2.49229H2.60209V13.6501ZM3.78248 8.7501V8.8599H3.89229H19.2923H19.4021V8.7501V5.9501C19.4021 5.62246 19.6646 5.3599 19.9923 5.3599C20.3199 5.3599 20.5825 5.62246 20.5825 5.9501V10.7403H2.60209V5.9501C2.60209 5.62246 2.86465 5.3599 3.19229 5.3599C3.51992 5.3599 3.78248 5.62246 3.78248 5.9501V8.7501ZM4.59229 1.8599H18.5923C18.9199 1.8599 19.1825 2.12246 19.1825 2.4501V3.90572C18.3697 4.23193 17.7825 5.02321 17.7825 5.9501V7.24029H5.40209V5.9501C5.40209 5.02321 4.81484 4.23193 4.00209 3.90572V2.4501C4.00209 2.12246 4.26465 1.8599 4.59229 1.8599Z" fill="#02504D" stroke="#02504D" stroke-width="0.219608"/>
</svg>
