<svg width="38" height="35" viewBox="0 0 38 35" fill="none" xmlns="http://www.w3.org/2000/svg">
    <path d="M35.4936 26.129C34.8538 25.5344 34.0634 25.1061 33.1991 24.8843V10.1157C34.0634 9.89388 34.8538 9.46556 35.4936 8.87096C36.1513 8.25979 36.6266 7.49463 36.8705 6.65287C37.1145 5.81108 37.1183 4.92318 36.8815 4.07953C36.6448 3.23592 36.1761 2.46714 35.5236 1.85096C34.8712 1.23482 34.0584 0.793133 33.1677 0.570175C32.2771 0.347221 31.34 0.350796 30.4513 0.580542C29.5626 0.810291 28.7535 1.25818 28.1064 1.8793C27.4771 2.48334 27.0227 3.23036 26.7871 4.0485H11.1368C10.9011 3.23036 10.4467 2.48334 9.81743 1.8793C9.17032 1.25818 8.36122 0.810291 7.47253 0.580542C6.58384 0.350796 5.6467 0.347221 4.75609 0.570175C3.86547 0.793133 3.05259 1.23482 2.4002 1.85096C1.74778 2.46714 1.27906 3.23592 1.04229 4.07953C0.805518 4.92318 0.809318 5.81108 1.0533 6.65287C1.29727 7.49463 1.77254 8.25979 2.4302 8.87096C3.07004 9.46556 3.8604 9.89387 4.72471 10.1157V24.8843C3.8604 25.1061 3.07004 25.5344 2.4302 26.129C1.77254 26.7402 1.29727 27.5054 1.0533 28.3471C0.809318 29.1889 0.805518 30.0768 1.04229 30.9205C1.27906 31.7641 1.74778 32.5329 2.4002 33.149C3.05259 33.7652 3.86547 34.2069 4.75609 34.4298C5.6467 34.6528 6.58384 34.6492 7.47253 34.4195C8.36122 34.1897 9.17032 33.7418 9.81743 33.1207C10.4467 32.5167 10.9011 31.7696 11.1368 30.9515H26.7871C27.0227 31.7696 27.4771 32.5167 28.1064 33.1207C28.7535 33.7418 29.5626 34.1897 30.4513 34.4195C31.34 34.6492 32.2771 34.6528 33.1677 34.4298C34.0584 34.2069 34.8712 33.7652 35.5236 33.149C36.1761 32.5329 36.6448 31.7641 36.8815 30.9205C37.1183 30.0768 37.1145 29.1889 36.8705 28.3471C36.6266 27.5054 36.1513 26.7402 35.4936 26.129ZM31.819 3.02312C32.31 3.02312 32.7897 3.16067 33.1972 3.41783C33.6046 3.67496 33.9214 4.03988 34.1082 4.46579C34.2949 4.89163 34.3437 5.35987 34.2486 5.81155C34.1534 6.26327 33.9184 6.67899 33.5724 7.00581C33.2263 7.33268 32.7847 7.55584 32.3032 7.6463C31.8217 7.73675 31.3226 7.69029 30.8693 7.51297C30.4161 7.33566 30.0296 7.03573 29.758 6.65191C29.4866 6.2682 29.342 5.8177 29.342 5.35734C29.3428 4.74028 29.6026 4.14752 30.0664 3.70946C30.5304 3.27124 31.1606 3.02386 31.819 3.02312ZM3.62789 5.35723C3.62789 4.89683 3.77242 4.44628 4.04391 4.06254C4.31545 3.67873 4.70199 3.3788 5.15523 3.20149C5.60851 3.02416 6.10756 2.9777 6.58908 3.06816C7.07058 3.15861 7.51218 3.38177 7.85827 3.70864C8.20432 4.03546 8.43931 4.45118 8.53445 4.9029C8.62957 5.35458 8.58081 5.82282 8.39404 6.24866C8.20724 6.67458 7.89052 7.03949 7.48306 7.29663C7.07557 7.55377 6.59598 7.69132 6.10495 7.69134C5.44651 7.69072 4.81623 7.44336 4.3522 7.0051C3.88837 6.56704 3.62857 5.97428 3.62789 5.35723ZM6.10476 31.9769C5.61373 31.9769 5.13414 31.8393 4.72666 31.5822C4.3192 31.325 4.00248 30.9601 3.81568 30.5342C3.62891 30.1084 3.58015 29.6401 3.67527 29.1885C3.77041 28.7367 4.0054 28.321 4.35144 27.9942C4.69754 27.6673 5.13914 27.4442 5.62064 27.3537C6.10216 27.2632 6.60121 27.3097 7.05449 27.487C7.50773 27.6643 7.89427 27.9643 8.16581 28.3481C8.43728 28.7318 8.5818 29.1823 8.58183 29.6427C8.58108 30.2597 8.32125 30.8525 7.85741 31.2905C7.39339 31.7288 6.76317 31.9762 6.10476 31.9769ZM28.1319 26.1531C27.4916 26.7578 27.0283 27.5093 26.7874 28.3341H11.1365C10.8954 27.5093 10.4321 26.7579 9.79185 26.1532C9.15133 25.5483 8.35628 25.1115 7.48501 24.8846V10.1154C8.35622 9.88839 9.15121 9.45158 9.79171 8.84667C10.4319 8.24202 10.8953 7.49063 11.1365 6.66595H26.7874C27.0284 7.49069 27.4917 8.24214 28.132 8.8468C28.7725 9.45174 29.5675 9.8885 30.4388 10.1154V24.8846C29.5675 25.1114 28.7724 25.5482 28.1319 26.1531ZM31.8189 31.9769C31.3278 31.9769 30.8483 31.8393 30.4408 31.5822C30.0333 31.325 29.7166 30.9601 29.5298 30.5342C29.343 30.1084 29.2943 29.6401 29.3894 29.1885C29.4845 28.7367 29.7195 28.321 30.0656 27.9942C30.4117 27.6673 30.8533 27.4442 31.3348 27.3537C31.8163 27.2632 32.3153 27.3097 32.7686 27.487C33.2218 27.6643 33.6084 27.9643 33.8799 28.3481C34.1514 28.7318 34.2959 29.1823 34.2959 29.6426C34.2951 30.2597 34.0352 30.8524 33.5714 31.2904C33.1074 31.7286 32.4772 31.976 31.8189 31.9769Z" fill="#02504D" stroke="#02504D" stroke-width="0.188889"/>
</svg>
