<svg width="21" height="17" viewBox="0 0 21 17" fill="transparent" xmlns="http://www.w3.org/2000/svg">
    <path d="M6.9832 11.0667C7.45845 10.557 8.03307 10.1501 8.67164 9.87111C9.31017 9.59219 9.99961 9.44723 10.6965 9.44478C11.3933 9.44233 12.0832 9.58271 12.7237 9.85724C13.3642 10.1318 13.9418 10.5345 14.4206 11.0409M4.74557 7.95918C5.50597 7.14375 6.42537 6.49288 7.44706 6.04646C8.46875 5.60009 9.57093 5.36791 10.6858 5.36401C11.8007 5.36012 12.9042 5.58482 13.9289 6.02404C14.9537 6.46329 15.8781 7.10784 16.6443 7.91797M1.76074 5.17658C2.90133 3.95345 4.28043 2.977 5.81297 2.30745C7.34551 1.6379 8.9982 1.28912 10.6706 1.28328C12.3431 1.27744 14.0001 1.61448 15.5373 2.27331C17.0745 2.93215 18.4606 3.89955 19.6097 5.11469M10.7142 15.5659C10.1508 15.5659 9.69407 15.1091 9.69407 14.5457C9.69407 13.9822 10.1508 13.5255 10.7142 13.5255C11.2777 13.5255 11.7344 13.9822 11.7344 14.5457C11.7344 15.1091 11.2777 15.5659 10.7142 15.5659Z"
          stroke="currentColor" stroke-width="2.04037" stroke-linecap="round" stroke-linejoin="round"/>
</svg>
