<svg width="20" height="15" viewBox="0 0 20 15" fill="none" xmlns="http://www.w3.org/2000/svg">
    <path d="M6.75706 11.8042H13.6434M6.75706 11.8042C6.75706 12.755 5.98628 13.5257 5.03547 13.5257C4.08466 13.5257 3.31388 12.755 3.31388 11.8042M6.75706 11.8042C6.75706 10.8533 5.98628 10.0826 5.03547 10.0826C4.08466 10.0826 3.31388 10.8533 3.31388 11.8042M13.6434 11.8042C13.6434 12.755 14.4142 13.5257 15.365 13.5257C16.3158 13.5257 17.0866 12.755 17.0866 11.8042M13.6434 11.8042C13.6434 10.8533 14.4142 10.0826 15.365 10.0826C16.3158 10.0826 17.0866 10.8533 17.0866 11.8042M3.31388 11.8042H2.96956C2.48747 11.8042 2.24642 11.8042 2.06229 11.7103C1.90032 11.6278 1.76864 11.4962 1.6861 11.3342C1.59229 11.15 1.59229 10.909 1.59229 10.4269V9.39393C1.59229 8.42975 1.59229 7.94762 1.77993 7.57937C1.94498 7.25545 2.20835 6.99205 2.53229 6.82704C2.90056 6.63938 3.38265 6.63938 4.34683 6.63938H14.6764C15.3161 6.63938 15.636 6.63938 15.9036 6.68173C17.3769 6.91509 18.5325 8.07063 18.7658 9.54396C18.8082 9.81159 18.8082 10.1315 18.8082 10.7712C18.8082 10.9311 18.8082 11.0111 18.7976 11.078C18.7392 11.4463 18.4504 11.7352 18.082 11.7936C18.0151 11.8042 17.9352 11.8042 17.7752 11.8042H17.0866M8.47865 1.47461V6.63938M3.31388 6.63938L3.59925 4.92716C3.80368 3.70057 3.9059 3.08727 4.21194 2.62704C4.48173 2.22135 4.86077 1.90025 5.30529 1.70084C5.80958 1.47461 6.43133 1.47461 7.67485 1.47461H10.5713C11.3798 1.47461 11.784 1.47461 12.151 1.58604C12.4758 1.68469 12.778 1.84642 13.0403 2.06198C13.3365 2.30548 13.5608 2.64182 14.0093 3.31451L16.2258 6.63938" stroke="#02504D" stroke-width="1.72159" stroke-linecap="round" stroke-linejoin="round"/>
</svg>
