<svg width="23" height="24" viewBox="0 0 23 24" fill="transparent" xmlns="http://www.w3.org/2000/svg">
    <path d="M15.6905 22.3501V7.70239C15.6905 4.7431 15.6905 3.26347 14.7711 2.34414C13.8518 1.4248 12.3721 1.4248 9.41289 1.4248H8.36663C5.40735 1.4248 3.92771 1.4248 3.00838 2.34414C2.08905 3.26347 2.08905 4.7431 2.08905 7.70239V22.3501"
          stroke="currentColor" stroke-width="1.5694"/>
    <path d="M8.88946 9.79492L7.32007 12.4106H10.4589L8.88946 15.0262" stroke="currentColor" stroke-width="1.5694"
          stroke-linecap="round" stroke-linejoin="round"/>
    <path d="M16.7366 22.3496H1.04266" stroke="currentColor" stroke-width="1.5694" stroke-linecap="round"/>
    <path d="M19.3521 3.51758L20.6423 4.54969C20.7864 4.66505 20.8585 4.72273 20.9241 4.78152C21.5427 5.33606 21.9163 6.11321 21.9628 6.94267C21.9678 7.03061 21.9678 7.12294 21.9678 7.3076V18.6884C21.9678 19.5551 21.2651 20.2578 20.3984 20.2578C19.5316 20.2578 18.829 19.5551 18.829 18.6884V18.6137C18.829 17.7882 18.1598 17.119 17.3343 17.119H15.6902"
          stroke="currentColor" stroke-width="1.5694" stroke-linecap="round"/>
    <path d="M21.9681 7.70215H20.3987C19.532 7.70215 18.8293 8.40479 18.8293 9.27154V11.8023C18.8293 12.4778 19.2616 13.0775 19.9025 13.2912L21.9681 13.9797"
          stroke="currentColor" stroke-width="1.5694" stroke-linecap="round"/>
</svg>
