<svg width="35" height="31" viewBox="0 0 35 31" fill="none" xmlns="http://www.w3.org/2000/svg">
    <path d="M17.7461 16.6421C17.0647 16.64 16.3898 16.5071 15.7558 16.2504L2.48958 10.813C2.03608 10.6031 1.65119 10.2631 1.38118 9.83367C1.11117 9.40428 0.967529 8.90383 0.967529 8.3925C0.967529 7.88117 1.11117 7.38073 1.38118 6.95133C1.65119 6.52193 2.03608 6.18186 2.48958 5.97199L15.7558 0.540471C17.0333 0.014179 18.4588 0.014179 19.7363 0.540471L33.0025 5.97199C33.456 6.18186 33.8409 6.52193 34.1109 6.95133C34.381 7.38073 34.5246 7.88117 34.5246 8.3925C34.5246 8.90383 34.381 9.40428 34.1109 9.83367C33.8409 10.2631 33.456 10.6031 33.0025 10.813L19.7363 16.2504C19.1022 16.5066 18.4273 16.6394 17.7461 16.6421ZM4.26941 8.3925L16.8078 13.5317C17.4094 13.7832 18.0827 13.7832 18.6843 13.5317L31.2227 8.3925L18.6843 3.25331C18.0827 3.00177 17.4094 3.00177 16.8078 3.25331L4.26941 8.3925Z" fill="#02DB82"/>
    <path d="M17.746 23.3307C17.064 23.3294 16.3886 23.1944 15.7557 22.9331L2.48948 17.5016C2.15115 17.3509 1.883 17.071 1.74161 16.7209C1.60022 16.3708 1.59667 15.9779 1.73169 15.6251C1.86671 15.2723 2.12975 14.9873 2.46529 14.8302C2.80083 14.6731 3.18262 14.6561 3.53008 14.7829L16.7907 20.2203C17.3922 20.4718 18.0656 20.4718 18.6672 20.2203L31.9618 14.7829C32.3125 14.6387 32.7045 14.6436 33.0516 14.7966C33.3987 14.9496 33.6725 15.238 33.8127 15.5985C33.953 15.9591 33.9482 16.3621 33.7995 16.719C33.6507 17.0759 33.3701 17.3574 33.0195 17.5016L19.7362 22.9331C19.1034 23.1944 18.4279 23.3294 17.746 23.3307Z" fill="#02DB82"/>
    <path d="M17.746 30.0192C17.064 30.0179 16.3886 29.8829 15.7557 29.6216L2.48948 24.1901C2.15115 24.0394 1.883 23.7595 1.74161 23.4094C1.60022 23.0592 1.59667 22.6663 1.73169 22.3136C1.86671 21.9608 2.12975 21.6758 2.46529 21.5187C2.80083 21.3615 3.18262 21.3446 3.53008 21.4714L16.7907 26.9088C17.3922 27.1603 18.0656 27.1603 18.6672 26.9088L31.9618 21.4714C32.3125 21.3272 32.7045 21.3321 33.0516 21.4851C33.3987 21.638 33.6725 21.9265 33.8127 22.287C33.953 22.6475 33.9482 23.0506 33.7995 23.4075C33.6507 23.7644 33.3701 24.0459 33.0195 24.1901L19.7362 29.6216C19.1034 29.8829 18.4279 30.0179 17.746 30.0192Z" fill="#02DB82"/>
</svg>
