<svg width="34" height="31" viewBox="0 0 34 31" fill="none" xmlns="http://www.w3.org/2000/svg">
<path d="M16.8936 16.8216C16.2137 16.8195 15.54 16.6869 14.9074 16.4307L1.66741 11.0041C1.21481 10.7946 0.830685 10.4552 0.561209 10.0267C0.291732 9.59814 0.148376 9.09868 0.148376 8.58837C0.148376 8.07805 0.291732 7.5786 0.561209 7.15005C0.830685 6.72151 1.21481 6.3821 1.66741 6.17266L14.9074 0.751907C16.1823 0.226659 17.605 0.226659 18.8799 0.751907L32.1199 6.17266C32.5725 6.3821 32.9566 6.72151 33.2261 7.15005C33.4955 7.5786 33.6389 8.07805 33.6389 8.58837C33.6389 9.09868 33.4955 9.59814 33.2261 10.0267C32.9566 10.4552 32.5725 10.7946 32.1199 11.0041L18.8799 16.4307C18.2471 16.6864 17.5736 16.8189 16.8936 16.8216ZM3.44371 8.58837L15.9572 13.7174C16.5576 13.9684 17.2296 13.9684 17.83 13.7174L30.3436 8.58837L17.83 3.45937C17.2296 3.20833 16.5576 3.20833 15.9572 3.45937L3.44371 8.58837Z" fill="#02DB82"/>
<path d="M16.8936 23.4969C16.213 23.4955 15.5389 23.3609 14.9074 23.1001L1.66741 17.6793C1.32975 17.529 1.06213 17.2496 0.921022 16.9002C0.779915 16.5507 0.776365 16.1586 0.911119 15.8066C1.04587 15.4545 1.30839 15.17 1.64327 15.0132C1.97814 14.8564 2.35917 14.8395 2.70595 14.966L15.9402 20.3926C16.5406 20.6437 17.2126 20.6437 17.813 20.3926L31.0813 14.966C31.4313 14.8221 31.8225 14.827 32.1689 14.9797C32.5153 15.1323 32.7886 15.4202 32.9286 15.78C33.0685 16.1398 33.0638 16.5421 32.9153 16.8983C32.7668 17.2545 32.4868 17.5354 32.1369 17.6793L18.8799 23.1001C18.2483 23.3609 17.5742 23.4955 16.8936 23.4969Z" fill="#02DB82"/>
<path d="M16.8936 30.1722C16.213 30.1708 15.5389 30.0362 14.9074 29.7754L1.66741 24.3546C1.32975 24.2043 1.06213 23.9249 0.921022 23.5754C0.779915 23.226 0.776365 22.8339 0.911119 22.4818C1.04587 22.1298 1.30839 21.8453 1.64327 21.6885C1.97814 21.5317 2.35917 21.5148 2.70595 21.6413L15.9402 27.0679C16.5406 27.319 17.2126 27.319 17.813 27.0679L31.0813 21.6413C31.4313 21.4974 31.8225 21.5023 32.1689 21.655C32.5153 21.8076 32.7886 22.0955 32.9286 22.4553C33.0685 22.8151 33.0638 23.2174 32.9153 23.5736C32.7668 23.9298 32.4868 24.2107 32.1369 24.3546L18.8799 29.7754C18.2483 30.0362 17.5742 30.1708 16.8936 30.1722Z" fill="#02DB82"/>
</svg>
