<svg width="16" height="16" viewBox="0 0 16 16" fill="none" xmlns="http://www.w3.org/2000/svg">
    <path d="M15.2793 12.9719L15.2794 12.9719L15.2817 12.9688C15.5384 12.6117 15.4733 12.1181 15.1341 11.8386C14.7777 11.5433 14.2478 11.5883 13.9465 11.9397L13.9463 11.9396L13.941 11.9465C12.9422 13.2537 11.39 14.0244 9.73866 14.0324C8.71738 14.0178 7.72149 13.7155 6.86567 13.1614C6.0778 12.6506 5.43875 11.945 5.01027 11.116H10.905C11.3731 11.116 11.7537 10.7386 11.7537 10.271C11.7537 9.80343 11.3731 9.42607 10.905 9.42607H4.42915C4.31498 8.76554 4.31498 8.09086 4.42915 7.43034H10.905C11.3731 7.43034 11.7537 7.05298 11.7537 6.58539C11.7537 6.1188 11.3732 5.74045 10.905 5.74045H5.01983C5.4483 4.91148 6.0873 4.2059 6.87433 3.69586L6.87436 3.69584C7.7302 3.14096 8.72693 2.83859 9.74824 2.82405C11.3988 2.83203 12.9518 3.60355 13.9506 4.91L13.951 4.91041C14.2354 5.27995 14.7665 5.35026 15.1384 5.06883L15.1386 5.06868C15.3181 4.93238 15.4354 4.73016 15.4632 4.50635C15.4908 4.28343 15.4273 4.05955 15.2878 3.88415C13.9752 2.15451 11.9252 1.13679 9.74769 1.13413L9.74601 1.13415C8.28881 1.14827 6.8714 1.60727 5.6864 2.44956C4.5302 3.27082 3.64897 4.41764 3.15549 5.74057H1.64197C1.17476 5.74057 0.79332 6.11879 0.79332 6.58551C0.79332 7.05322 1.17489 7.43046 1.64197 7.43046H2.72081C2.62168 8.09196 2.62168 8.76469 2.72081 9.42619H1.64197C1.17489 9.42619 0.79332 9.80342 0.79332 10.2711C0.79332 10.7388 1.17489 11.1161 1.64197 11.1161H3.14591C3.63944 12.4399 4.52069 13.5859 5.67678 14.4079L5.67685 14.408C6.86275 15.2502 8.28008 15.7093 9.73655 15.7225L9.73814 15.7225C11.9162 15.7198 13.9676 14.7016 15.2793 12.9719Z" fill="#02504D" stroke="#02504D" stroke-width="0.307892"/>
</svg>
