<svg width="27" height="46" viewBox="0 0 27 46" fill="none" xmlns="http://www.w3.org/2000/svg">
<path d="M26.2244 19.4595L23.5771 3.35725C23.2716 1.49845 21.5508 0.241943 19.743 0.55607C17.9351 0.870196 16.7131 2.63813 17.0186 4.49823L18.2621 12.0593L8.14856 8.08343C6.59826 7.47335 4.87374 8.14054 4.0746 9.57877C1.87035 9.78776 0.570019 11.4415 0.570019 14.0921V14.118L1.41713 27.0245L0.713939 29.0378C-0.202606 31.6611 0.160983 34.6077 1.6873 36.9208C1.95872 37.3323 2.25793 37.7126 2.58238 38.0618V45.3633H4.09733V39.3481C5.3257 40.1581 6.75228 40.6228 8.26597 40.6747C8.3657 40.6786 8.46544 40.6799 8.56643 40.6799H10.4134V39.1223H8.56643C8.48311 39.1223 8.39979 39.121 8.31773 39.1184C6.13872 39.0431 4.17939 37.9229 2.94092 36.0459C1.6671 34.1157 1.37547 31.7533 2.14052 29.5648L2.95102 27.2452L2.08497 14.0661C2.09128 12.5214 2.61268 11.5791 3.63401 11.2494C3.63022 11.7335 3.72617 12.2177 3.92437 12.6733C4.2867 13.5067 4.94318 14.1466 5.77261 14.4724L9.00451 15.7432L6.38617 15.6874C6.36344 15.6874 6.33946 15.6874 6.31673 15.6874C4.51394 15.6874 3.02929 17.1749 2.99268 19.0363C2.96238 20.5447 3.89281 21.8479 5.20451 22.3282C4.78916 22.8967 4.55686 23.5808 4.54298 24.3051C4.5253 25.2189 4.85354 26.0847 5.46836 26.7428C6.08318 27.4009 6.91135 27.7748 7.79886 27.7942L9.6269 27.8332C9.53979 27.9124 9.45394 27.9928 9.37188 28.0772C8.26723 29.2039 7.65872 30.7044 7.65872 32.3049V35.232H9.17368V32.3049C9.17368 31.1237 9.62311 30.0152 10.4387 29.1831C11.2504 28.3563 12.326 27.9046 13.4761 27.9149L15.3761 27.9552L15.4077 26.3975L7.83042 26.2366C7.3469 26.2262 6.8962 26.0237 6.56165 25.6641C6.2271 25.3059 6.04783 24.8334 6.05793 24.3362C6.06803 23.8391 6.26497 23.3757 6.61467 23.0317C6.8659 22.7838 7.17268 22.6202 7.50471 22.5514L13.3044 22.6747L15.5428 22.7409L19.9475 31.8286L16.9719 37.9514V45.3646H18.4868V38.3201L25.3521 24.1973L25.3319 24.148L25.3685 24.1545L26.2244 19.4634V19.4595ZM20.7959 30.0827L16.4947 21.208L13.8587 21.1301V21.1262L13.3436 21.1158L7.93773 20.9548C7.75341 20.9509 7.57162 20.9626 7.39235 20.9899L6.28138 20.9665C5.28278 20.9457 4.48743 20.0929 4.50763 19.0662C4.52783 18.0524 5.3358 17.2424 6.31799 17.2424C6.33062 17.2424 6.34324 17.2424 6.35587 17.2424L17.208 17.4722L18.8555 21.8388L20.2682 21.2755L18.2533 15.9353L13.3815 15.8328L13.3941 15.7977L6.31421 13.0147C5.86225 12.8369 5.50497 12.489 5.30803 12.0347C5.11108 11.5804 5.0972 11.0741 5.27015 10.6107C5.62743 9.65146 6.67527 9.16989 7.60823 9.53594L19.7001 14.2894L23.6882 24.1337L20.7971 30.0814L20.7959 30.0827ZM20.8476 13.0744L19.9046 12.7032L18.5121 4.23732C18.3454 3.22485 19.012 2.2617 19.9955 2.09166C20.9802 1.92031 21.9157 2.60568 22.0823 3.61686L24.6842 19.4452L24.2941 21.5844L20.8464 13.0744H20.8476Z" fill="#02DB82"/>
</svg>
