<svg width="19" height="16" viewBox="0 0 19 16" fill="currentColor" xmlns="http://www.w3.org/2000/svg">
    <path d="M18.3829 7.50764L18.3831 7.50781C18.4452 7.56183 18.4961 7.62756 18.5328 7.70124C18.5695 7.77492 18.5913 7.85511 18.5971 7.93722C18.6028 8.01934 18.5923 8.10178 18.5661 8.17984C18.54 8.25789 18.4987 8.33003 18.4447 8.39214C18.3907 8.45425 18.3249 8.50511 18.2513 8.54182C18.1776 8.57853 18.0974 8.60037 18.0153 8.60609C17.9332 8.6118 17.8507 8.60129 17.7727 8.57515C17.6947 8.54902 17.6225 8.50779 17.5605 8.45381L18.3829 7.50764ZM18.3829 7.50764L10.4393 0.629038L10.4391 0.628869C10.1884 0.412712 9.86843 0.293803 9.53741 0.293803C9.20639 0.293803 8.88637 0.412712 8.63567 0.628869L8.63547 0.629041L0.687926 7.51161L0.687728 7.51179C0.562292 7.62089 0.485334 7.77535 0.473785 7.9412C0.462236 8.10704 0.517042 8.27068 0.626145 8.39612C0.735249 8.52155 0.889712 8.59851 1.05556 8.61006C1.2214 8.62161 1.38504 8.5668 1.51048 8.4577L2.30312 7.76969L2.30312 14.0805L2.30312 14.0809C2.30427 14.4453 2.44985 14.7944 2.70796 15.0517C2.96606 15.309 3.31563 15.4535 3.68007 15.4535H15.3908C15.7552 15.4535 16.1048 15.309 16.3629 15.0517C16.621 14.7944 16.7666 14.4453 16.7677 14.0809V14.0805V7.76571M18.3829 7.50764L16.7677 7.76571M16.7677 7.76571L17.5604 8.45372L16.7677 7.76571ZM15.504 14.0804V14.0805C15.504 14.1126 15.4912 14.1435 15.4685 14.1662C15.4458 14.1889 15.415 14.2017 15.3828 14.2017H12.2694L12.2694 10.1862L12.2694 10.1858C12.2683 9.82139 12.1227 9.47228 11.8646 9.21499C11.6065 8.95771 11.2569 8.81323 10.8925 8.81324H8.18235C7.81792 8.81323 7.46834 8.95771 7.21024 9.21499C6.95214 9.47228 6.80656 9.82139 6.8054 10.1858V10.1862V14.2017H3.68404C3.65191 14.2017 3.62109 14.1889 3.59837 14.1662C3.57564 14.1435 3.56288 14.1126 3.56288 14.0805V6.6811L9.45783 1.57529L9.45796 1.57518C9.48 1.55604 9.50821 1.5455 9.53741 1.5455C9.5666 1.5455 9.59482 1.55604 9.61686 1.57518L9.61699 1.57529L15.5119 6.68104L15.504 14.0804ZM11.0216 10.1862L11.0061 14.2017H8.06914V10.1862C8.06914 10.1541 8.0819 10.1233 8.10462 10.1005C8.12735 10.0778 8.15816 10.065 8.1903 10.065H10.9004C10.9325 10.065 10.9634 10.0778 10.9861 10.1005C11.0088 10.1232 11.0215 10.154 11.0216 10.186C11.0216 10.1861 11.0216 10.1862 11.0216 10.1862Z"/>
</svg>
