<svg width="19" height="20" viewBox="0 0 19 20" fill="currentColor" xmlns="http://www.w3.org/2000/svg">
    <mask id="path-1-outside-1_631_1696" maskUnits="userSpaceOnUse" x="-0.0571289" y="0.161133" width="19" height="19"
          fill="black">
        <rect fill="white" x="-0.0571289" y="0.161133" width="19" height="19"/>
        <path d="M18.5356 13.3826C18.533 13.3758 18.5289 13.3702 18.5256 13.3638C18.5187 13.3477 18.5105 13.3323 18.501 13.3177L15.5338 9.2745C15.4244 9.12642 15.282 9.0059 15.1179 8.92252C14.9538 8.83914 14.7725 8.7952 14.5884 8.7942H11.2182V7.61988H13.8604C14.094 7.61988 14.318 7.52709 14.4831 7.36192C14.6483 7.19675 14.7411 6.97273 14.7411 6.73914V3.21619C14.7411 2.9826 14.6483 2.75858 14.4831 2.59341C14.318 2.42824 14.094 2.33545 13.8604 2.33545H11.2182V2.04187C11.2182 1.80828 11.1254 1.58427 10.9602 1.4191C10.795 1.25392 10.571 1.16113 10.3374 1.16113H9.1631C8.92951 1.16113 8.70549 1.25392 8.54032 1.4191C8.37515 1.58427 8.28236 1.80828 8.28236 2.04187V2.33545H5.64014C5.40656 2.33545 5.18254 2.42824 5.01737 2.59341C4.8522 2.75858 4.7594 2.9826 4.7594 3.21619V6.73914C4.7594 6.97273 4.8522 7.19675 5.01737 7.36192C5.18254 7.52709 5.40656 7.61988 5.64014 7.61988H8.28236V8.7942H4.91207C4.72762 8.79505 4.54593 8.839 4.3815 8.92255C4.21706 9.00609 4.07442 9.12691 3.96498 9.27538L0.999826 13.3177C0.990239 13.3322 0.981985 13.3475 0.975165 13.3635C0.971935 13.3702 0.967532 13.3758 0.96489 13.3826C0.95234 13.4145 0.945484 13.4484 0.944633 13.4827C0.944633 13.4856 0.942871 13.4882 0.942871 13.4915V17.8952C0.942871 18.1287 1.03566 18.3528 1.20083 18.5179C1.366 18.6831 1.59002 18.7759 1.82361 18.7759H17.6769C17.9105 18.7759 18.1345 18.6831 18.2997 18.5179C18.4648 18.3528 18.5576 18.1287 18.5576 17.8952V13.4915C18.5576 13.4882 18.5559 13.4856 18.5559 13.4827C18.555 13.4484 18.5482 13.4145 18.5356 13.3826ZM1.53003 13.7851H17.9705V14.6828C17.647 14.7191 17.3354 14.8259 17.0577 14.9958C16.7791 15.164 16.4599 15.2529 16.1344 15.2529C15.809 15.2529 15.4897 15.164 15.2111 14.9958C14.8459 14.7798 14.4293 14.6658 14.005 14.6658C13.5806 14.6658 13.164 14.7798 12.7988 14.9958C12.5205 15.164 12.2015 15.2529 11.8764 15.2529C11.5512 15.2529 11.2322 15.164 10.9539 14.9958C10.5922 14.7715 10.1732 14.6569 9.74761 14.6658C9.32215 14.6568 8.90322 14.7714 8.54159 14.9958C8.26677 15.1719 7.94544 15.2614 7.61916 15.2529C7.29306 15.2615 6.97191 15.1719 6.69732 14.9958C6.33573 14.7716 5.91694 14.657 5.49159 14.6658C5.06624 14.657 4.64745 14.7716 4.28586 14.9958C4.01127 15.1719 3.69012 15.2615 3.36402 15.2529C3.03792 15.2615 2.71677 15.1719 2.44218 14.9958C2.1647 14.8259 1.85332 14.7191 1.53003 14.6828V13.7851ZM8.86952 2.04187C8.86952 1.96401 8.90045 1.88934 8.9555 1.83428C9.01056 1.77922 9.08523 1.74829 9.1631 1.74829H10.3374C10.4153 1.74829 10.4899 1.77922 10.545 1.83428C10.6001 1.88934 10.631 1.96401 10.631 2.04187V2.33545H8.86952V2.04187ZM10.631 7.61988V10.8493H8.86952V7.61988H10.631ZM4.43647 9.62356C4.49097 9.54849 4.56249 9.4874 4.64516 9.4453C4.72783 9.4032 4.81929 9.38129 4.91207 9.38136H8.28236V10.8493H7.40162C7.32376 10.8493 7.24908 10.8802 7.19403 10.9352C7.13897 10.9903 7.10804 11.065 7.10804 11.1428C7.10804 11.2207 7.13897 11.2954 7.19403 11.3504C7.24908 11.4055 7.32376 11.4364 7.40162 11.4364H12.0989C12.1768 11.4364 12.2514 11.4055 12.3065 11.3504C12.3615 11.2954 12.3925 11.2207 12.3925 11.1428C12.3925 11.065 12.3615 10.9903 12.3065 10.9352C12.2514 10.8802 12.1768 10.8493 12.0989 10.8493H11.2182V9.38136H14.5884C14.6808 9.38146 14.7719 9.40337 14.8542 9.4453C14.9366 9.48724 15.0079 9.54801 15.0623 9.62268L17.6845 13.1979H1.81598L4.43647 9.62356ZM17.6769 18.1887H1.82361C1.74575 18.1887 1.67107 18.1578 1.61602 18.1028C1.56096 18.0477 1.53003 17.973 1.53003 17.8952V15.2729C1.75318 15.3093 1.96679 15.3899 2.15829 15.5101C2.51988 15.7343 2.93867 15.8489 3.36402 15.8401C3.78937 15.8489 4.20816 15.7343 4.56975 15.5101C4.84434 15.334 5.16549 15.2444 5.49159 15.2529C5.81769 15.2444 6.13884 15.334 6.41343 15.5101C6.77502 15.7343 7.19381 15.8489 7.61916 15.8401C8.04461 15.849 8.46351 15.7343 8.82519 15.5101C9.10346 15.3419 9.42244 15.253 9.74761 15.253C10.0728 15.253 10.3918 15.3419 10.67 15.5101C11.0353 15.7262 11.4519 15.8402 11.8764 15.8402C12.3008 15.8402 12.7174 15.7262 13.0827 15.5101C13.361 15.342 13.68 15.2531 14.0052 15.2531C14.3304 15.2531 14.6495 15.342 14.9278 15.5101C15.2932 15.7262 15.7098 15.8401 16.1343 15.8401C16.5587 15.8401 16.9754 15.7262 17.3408 15.5101C17.5328 15.39 17.7469 15.3093 17.9705 15.2729V17.8952C17.9705 17.973 17.9395 18.0477 17.8845 18.1028C17.8294 18.1578 17.7548 18.1887 17.6769 18.1887Z"/>
    </mask>
    <path d="M18.5356 13.3826C18.533 13.3758 18.5289 13.3702 18.5256 13.3638C18.5187 13.3477 18.5105 13.3323 18.501 13.3177L15.5338 9.2745C15.4244 9.12642 15.282 9.0059 15.1179 8.92252C14.9538 8.83914 14.7725 8.7952 14.5884 8.7942H11.2182V7.61988H13.8604C14.094 7.61988 14.318 7.52709 14.4831 7.36192C14.6483 7.19675 14.7411 6.97273 14.7411 6.73914V3.21619C14.7411 2.9826 14.6483 2.75858 14.4831 2.59341C14.318 2.42824 14.094 2.33545 13.8604 2.33545H11.2182V2.04187C11.2182 1.80828 11.1254 1.58427 10.9602 1.4191C10.795 1.25392 10.571 1.16113 10.3374 1.16113H9.1631C8.92951 1.16113 8.70549 1.25392 8.54032 1.4191C8.37515 1.58427 8.28236 1.80828 8.28236 2.04187V2.33545H5.64014C5.40656 2.33545 5.18254 2.42824 5.01737 2.59341C4.8522 2.75858 4.7594 2.9826 4.7594 3.21619V6.73914C4.7594 6.97273 4.8522 7.19675 5.01737 7.36192C5.18254 7.52709 5.40656 7.61988 5.64014 7.61988H8.28236V8.7942H4.91207C4.72762 8.79505 4.54593 8.839 4.3815 8.92255C4.21706 9.00609 4.07442 9.12691 3.96498 9.27538L0.999826 13.3177C0.990239 13.3322 0.981985 13.3475 0.975165 13.3635C0.971935 13.3702 0.967532 13.3758 0.96489 13.3826C0.95234 13.4145 0.945484 13.4484 0.944633 13.4827C0.944633 13.4856 0.942871 13.4882 0.942871 13.4915V17.8952C0.942871 18.1287 1.03566 18.3528 1.20083 18.5179C1.366 18.6831 1.59002 18.7759 1.82361 18.7759H17.6769C17.9105 18.7759 18.1345 18.6831 18.2997 18.5179C18.4648 18.3528 18.5576 18.1287 18.5576 17.8952V13.4915C18.5576 13.4882 18.5559 13.4856 18.5559 13.4827C18.555 13.4484 18.5482 13.4145 18.5356 13.3826ZM1.53003 13.7851H17.9705V14.6828C17.647 14.7191 17.3354 14.8259 17.0577 14.9958C16.7791 15.164 16.4599 15.2529 16.1344 15.2529C15.809 15.2529 15.4897 15.164 15.2111 14.9958C14.8459 14.7798 14.4293 14.6658 14.005 14.6658C13.5806 14.6658 13.164 14.7798 12.7988 14.9958C12.5205 15.164 12.2015 15.2529 11.8764 15.2529C11.5512 15.2529 11.2322 15.164 10.9539 14.9958C10.5922 14.7715 10.1732 14.6569 9.74761 14.6658C9.32215 14.6568 8.90322 14.7714 8.54159 14.9958C8.26677 15.1719 7.94544 15.2614 7.61916 15.2529C7.29306 15.2615 6.97191 15.1719 6.69732 14.9958C6.33573 14.7716 5.91694 14.657 5.49159 14.6658C5.06624 14.657 4.64745 14.7716 4.28586 14.9958C4.01127 15.1719 3.69012 15.2615 3.36402 15.2529C3.03792 15.2615 2.71677 15.1719 2.44218 14.9958C2.1647 14.8259 1.85332 14.7191 1.53003 14.6828V13.7851ZM8.86952 2.04187C8.86952 1.96401 8.90045 1.88934 8.9555 1.83428C9.01056 1.77922 9.08523 1.74829 9.1631 1.74829H10.3374C10.4153 1.74829 10.4899 1.77922 10.545 1.83428C10.6001 1.88934 10.631 1.96401 10.631 2.04187V2.33545H8.86952V2.04187ZM10.631 7.61988V10.8493H8.86952V7.61988H10.631ZM4.43647 9.62356C4.49097 9.54849 4.56249 9.4874 4.64516 9.4453C4.72783 9.4032 4.81929 9.38129 4.91207 9.38136H8.28236V10.8493H7.40162C7.32376 10.8493 7.24908 10.8802 7.19403 10.9352C7.13897 10.9903 7.10804 11.065 7.10804 11.1428C7.10804 11.2207 7.13897 11.2954 7.19403 11.3504C7.24908 11.4055 7.32376 11.4364 7.40162 11.4364H12.0989C12.1768 11.4364 12.2514 11.4055 12.3065 11.3504C12.3615 11.2954 12.3925 11.2207 12.3925 11.1428C12.3925 11.065 12.3615 10.9903 12.3065 10.9352C12.2514 10.8802 12.1768 10.8493 12.0989 10.8493H11.2182V9.38136H14.5884C14.6808 9.38146 14.7719 9.40337 14.8542 9.4453C14.9366 9.48724 15.0079 9.54801 15.0623 9.62268L17.6845 13.1979H1.81598L4.43647 9.62356ZM17.6769 18.1887H1.82361C1.74575 18.1887 1.67107 18.1578 1.61602 18.1028C1.56096 18.0477 1.53003 17.973 1.53003 17.8952V15.2729C1.75318 15.3093 1.96679 15.3899 2.15829 15.5101C2.51988 15.7343 2.93867 15.8489 3.36402 15.8401C3.78937 15.8489 4.20816 15.7343 4.56975 15.5101C4.84434 15.334 5.16549 15.2444 5.49159 15.2529C5.81769 15.2444 6.13884 15.334 6.41343 15.5101C6.77502 15.7343 7.19381 15.8489 7.61916 15.8401C8.04461 15.849 8.46351 15.7343 8.82519 15.5101C9.10346 15.3419 9.42244 15.253 9.74761 15.253C10.0728 15.253 10.3918 15.3419 10.67 15.5101C11.0353 15.7262 11.4519 15.8402 11.8764 15.8402C12.3008 15.8402 12.7174 15.7262 13.0827 15.5101C13.361 15.342 13.68 15.2531 14.0052 15.2531C14.3304 15.2531 14.6495 15.342 14.9278 15.5101C15.2932 15.7262 15.7098 15.8401 16.1343 15.8401C16.5587 15.8401 16.9754 15.7262 17.3408 15.5101C17.5328 15.39 17.7469 15.3093 17.9705 15.2729V17.8952C17.9705 17.973 17.9395 18.0477 17.8845 18.1028C17.8294 18.1578 17.7548 18.1887 17.6769 18.1887Z"
          fill="#02504D"/>
    <path d="M18.5356 13.3826C18.533 13.3758 18.5289 13.3702 18.5256 13.3638C18.5187 13.3477 18.5105 13.3323 18.501 13.3177L15.5338 9.2745C15.4244 9.12642 15.282 9.0059 15.1179 8.92252C14.9538 8.83914 14.7725 8.7952 14.5884 8.7942H11.2182V7.61988H13.8604C14.094 7.61988 14.318 7.52709 14.4831 7.36192C14.6483 7.19675 14.7411 6.97273 14.7411 6.73914V3.21619C14.7411 2.9826 14.6483 2.75858 14.4831 2.59341C14.318 2.42824 14.094 2.33545 13.8604 2.33545H11.2182V2.04187C11.2182 1.80828 11.1254 1.58427 10.9602 1.4191C10.795 1.25392 10.571 1.16113 10.3374 1.16113H9.1631C8.92951 1.16113 8.70549 1.25392 8.54032 1.4191C8.37515 1.58427 8.28236 1.80828 8.28236 2.04187V2.33545H5.64014C5.40656 2.33545 5.18254 2.42824 5.01737 2.59341C4.8522 2.75858 4.7594 2.9826 4.7594 3.21619V6.73914C4.7594 6.97273 4.8522 7.19675 5.01737 7.36192C5.18254 7.52709 5.40656 7.61988 5.64014 7.61988H8.28236V8.7942H4.91207C4.72762 8.79505 4.54593 8.839 4.3815 8.92255C4.21706 9.00609 4.07442 9.12691 3.96498 9.27538L0.999826 13.3177C0.990239 13.3322 0.981985 13.3475 0.975165 13.3635C0.971935 13.3702 0.967532 13.3758 0.96489 13.3826C0.95234 13.4145 0.945484 13.4484 0.944633 13.4827C0.944633 13.4856 0.942871 13.4882 0.942871 13.4915V17.8952C0.942871 18.1287 1.03566 18.3528 1.20083 18.5179C1.366 18.6831 1.59002 18.7759 1.82361 18.7759H17.6769C17.9105 18.7759 18.1345 18.6831 18.2997 18.5179C18.4648 18.3528 18.5576 18.1287 18.5576 17.8952V13.4915C18.5576 13.4882 18.5559 13.4856 18.5559 13.4827C18.555 13.4484 18.5482 13.4145 18.5356 13.3826ZM1.53003 13.7851H17.9705V14.6828C17.647 14.7191 17.3354 14.8259 17.0577 14.9958C16.7791 15.164 16.4599 15.2529 16.1344 15.2529C15.809 15.2529 15.4897 15.164 15.2111 14.9958C14.8459 14.7798 14.4293 14.6658 14.005 14.6658C13.5806 14.6658 13.164 14.7798 12.7988 14.9958C12.5205 15.164 12.2015 15.2529 11.8764 15.2529C11.5512 15.2529 11.2322 15.164 10.9539 14.9958C10.5922 14.7715 10.1732 14.6569 9.74761 14.6658C9.32215 14.6568 8.90322 14.7714 8.54159 14.9958C8.26677 15.1719 7.94544 15.2614 7.61916 15.2529C7.29306 15.2615 6.97191 15.1719 6.69732 14.9958C6.33573 14.7716 5.91694 14.657 5.49159 14.6658C5.06624 14.657 4.64745 14.7716 4.28586 14.9958C4.01127 15.1719 3.69012 15.2615 3.36402 15.2529C3.03792 15.2615 2.71677 15.1719 2.44218 14.9958C2.1647 14.8259 1.85332 14.7191 1.53003 14.6828V13.7851ZM8.86952 2.04187C8.86952 1.96401 8.90045 1.88934 8.9555 1.83428C9.01056 1.77922 9.08523 1.74829 9.1631 1.74829H10.3374C10.4153 1.74829 10.4899 1.77922 10.545 1.83428C10.6001 1.88934 10.631 1.96401 10.631 2.04187V2.33545H8.86952V2.04187ZM10.631 7.61988V10.8493H8.86952V7.61988H10.631ZM4.43647 9.62356C4.49097 9.54849 4.56249 9.4874 4.64516 9.4453C4.72783 9.4032 4.81929 9.38129 4.91207 9.38136H8.28236V10.8493H7.40162C7.32376 10.8493 7.24908 10.8802 7.19403 10.9352C7.13897 10.9903 7.10804 11.065 7.10804 11.1428C7.10804 11.2207 7.13897 11.2954 7.19403 11.3504C7.24908 11.4055 7.32376 11.4364 7.40162 11.4364H12.0989C12.1768 11.4364 12.2514 11.4055 12.3065 11.3504C12.3615 11.2954 12.3925 11.2207 12.3925 11.1428C12.3925 11.065 12.3615 10.9903 12.3065 10.9352C12.2514 10.8802 12.1768 10.8493 12.0989 10.8493H11.2182V9.38136H14.5884C14.6808 9.38146 14.7719 9.40337 14.8542 9.4453C14.9366 9.48724 15.0079 9.54801 15.0623 9.62268L17.6845 13.1979H1.81598L4.43647 9.62356ZM17.6769 18.1887H1.82361C1.74575 18.1887 1.67107 18.1578 1.61602 18.1028C1.56096 18.0477 1.53003 17.973 1.53003 17.8952V15.2729C1.75318 15.3093 1.96679 15.3899 2.15829 15.5101C2.51988 15.7343 2.93867 15.8489 3.36402 15.8401C3.78937 15.8489 4.20816 15.7343 4.56975 15.5101C4.84434 15.334 5.16549 15.2444 5.49159 15.2529C5.81769 15.2444 6.13884 15.334 6.41343 15.5101C6.77502 15.7343 7.19381 15.8489 7.61916 15.8401C8.04461 15.849 8.46351 15.7343 8.82519 15.5101C9.10346 15.3419 9.42244 15.253 9.74761 15.253C10.0728 15.253 10.3918 15.3419 10.67 15.5101C11.0353 15.7262 11.4519 15.8402 11.8764 15.8402C12.3008 15.8402 12.7174 15.7262 13.0827 15.5101C13.361 15.342 13.68 15.2531 14.0052 15.2531C14.3304 15.2531 14.6495 15.342 14.9278 15.5101C15.2932 15.7262 15.7098 15.8401 16.1343 15.8401C16.5587 15.8401 16.9754 15.7262 17.3408 15.5101C17.5328 15.39 17.7469 15.3093 17.9705 15.2729V17.8952C17.9705 17.973 17.9395 18.0477 17.8845 18.1028C17.8294 18.1578 17.7548 18.1887 17.6769 18.1887Z"
          stroke="#02504D" stroke-width="0.503279" mask="url(#path-1-outside-1_631_1696)"/>
    <rect x="5.34607" y="3.04883" width="8.80738" height="3.77459" rx="0.25164" fill="white"/>
</svg>
