<svg width="20" height="23" viewBox="0 0 20 23" fill="transparent" xmlns="http://www.w3.org/2000/svg">
    <path d="M12.4078 12.5492C12.4078 13.7913 11.4009 14.7983 10.1587 14.7983M15.7814 4.67735H15.7927M15.7814 12.5492C15.7814 15.6545 13.264 18.1719 10.1587 18.1719C7.05337 18.1719 4.53599 15.6545 4.53599 12.5492C4.53599 9.44384 7.05337 6.92644 10.1587 6.92644C13.264 6.92644 15.7814 9.44384 15.7814 12.5492ZM3.41144 21.5455H16.906C18.1482 21.5455 19.1551 20.5386 19.1551 19.2964V3.5528C19.1551 2.31066 18.1482 1.30371 16.906 1.30371H3.41144C2.1693 1.30371 1.16235 2.31066 1.16235 3.5528V19.2964C1.16235 20.5386 2.1693 21.5455 3.41144 21.5455Z"
          stroke="currentColor" stroke-width="1.42048" stroke-linecap="round" stroke-linejoin="round"/>
</svg>

