<svg width="3572" height="813" viewBox="0 0 3572 813" fill="none" xmlns="http://www.w3.org/2000/svg">
    <path d="M1031.02 644.813C1010.16 644.813 993.362 638.708 980.638 626.491C968.421 613.767 962.316 596.971 962.316 576.105V154.685H1069.2V551.674H1324.19V644.813H1031.02Z" fill="#02504D"/>
    <path d="M1341.21 457.006C1341.21 432.576 1344.77 408.657 1351.9 385.246C1359.54 361.323 1371.5 339.947 1387.78 321.115C1404.58 302.283 1426.21 287.269 1452.67 276.072C1479.65 264.366 1512.48 258.513 1551.16 258.513C1589.84 258.513 1622.41 264.366 1648.88 276.072C1675.35 287.269 1696.72 302.283 1713.01 321.115C1729.8 339.947 1741.77 361.323 1748.89 385.246C1756.53 408.657 1760.34 432.576 1760.34 457.006C1760.34 486.019 1755.51 512.482 1745.84 536.405C1736.68 560.328 1723.19 580.939 1705.37 598.246C1687.56 615.549 1665.67 629.036 1639.72 638.708C1614.27 647.869 1585 652.448 1551.92 652.448C1519.35 652.448 1489.83 647.869 1463.37 638.708C1437.4 629.036 1415.27 615.549 1396.95 598.246C1379.13 580.939 1365.39 560.328 1355.72 536.405C1346.05 512.482 1341.21 486.019 1341.21 457.006ZM1551.16 561.598C1572.03 561.598 1589.33 558.798 1603.07 553.201C1616.81 547.604 1628.01 540.225 1636.67 531.06C1645.32 521.392 1651.42 510.193 1654.99 497.469C1658.55 484.237 1660.33 470.242 1660.33 455.48C1660.33 440.722 1658.55 426.979 1654.99 414.254C1651.42 401.022 1645.32 389.824 1636.67 380.663C1628.52 370.993 1617.33 363.359 1603.07 357.76C1589.33 352.162 1572.03 349.362 1551.16 349.362C1530.8 349.362 1513.5 352.162 1499.25 357.76C1485.5 362.85 1474.31 370.23 1465.65 379.9C1457 389.568 1450.89 401.022 1447.33 414.254C1443.77 426.979 1441.99 440.722 1441.99 455.48C1441.99 470.242 1443.77 484.237 1447.33 497.469C1450.89 510.193 1457 521.392 1465.65 531.06C1474.31 540.225 1485.5 547.604 1499.25 553.201C1513.5 558.798 1530.8 561.598 1551.16 561.598Z" fill="#02504D"/>
    <path d="M2129.77 644.814V592.138C2124.68 598.754 2117.81 605.881 2109.16 613.512C2101.01 620.639 2091.34 627.255 2080.14 633.364C2069.46 639.472 2057.24 644.306 2043.5 647.87C2029.76 651.941 2014.74 653.723 1998.46 653.211C1969.45 652.197 1943.74 646.34 1921.35 635.653C1898.95 624.966 1879.87 610.971 1864.09 593.664C1848.31 576.361 1836.1 556.509 1827.44 534.117C1819.3 511.72 1814.72 488.053 1813.7 463.115C1813.19 436.652 1817.01 411.203 1825.15 386.773C1833.81 361.833 1846.28 339.947 1862.57 321.115C1879.36 302.284 1899.21 287.27 1922.11 276.072C1945.52 264.875 1971.23 259.277 1999.22 259.277C2027.72 259.277 2052.66 264.875 2074.04 276.072C2095.41 286.761 2112.97 300.503 2126.71 317.298V101.244H2231.31V644.814H2129.77ZM1919.06 459.3C1919.06 474.058 1921.35 488.309 1925.93 502.052C1931.02 515.284 1937.89 526.989 1946.54 537.169C1955.7 547.349 1966.65 555.491 1979.37 561.599C1992.6 567.196 2007.36 569.997 2023.65 569.997C2039.94 569.997 2054.44 567.196 2067.17 561.599C2079.89 555.491 2090.58 547.349 2099.23 537.169C2108.39 526.989 2115.26 515.284 2119.84 502.052C2124.93 488.309 2127.48 474.058 2127.48 459.3C2127.48 444.031 2124.93 429.78 2119.84 416.544C2115.26 403.312 2108.39 391.607 2099.23 381.427C2090.58 371.248 2079.89 363.359 2067.17 357.761C2054.44 351.653 2039.94 348.599 2023.65 348.599C2007.36 348.599 1992.6 351.653 1979.37 357.761C1966.65 363.359 1955.7 371.248 1946.54 381.427C1937.89 391.607 1931.02 403.312 1925.93 416.544C1921.35 429.78 1919.06 444.031 1919.06 459.3Z" fill="#02504D"/>
    <path d="M2379.22 659.318C2383.8 665.427 2389.65 672.043 2396.77 679.17C2404.41 686.801 2413.57 693.928 2424.26 700.544C2434.95 707.16 2447.42 712.506 2461.67 716.577C2475.92 721.159 2492.21 723.448 2510.53 723.448C2523.76 723.448 2537 722.174 2550.23 719.629C2563.97 717.084 2576.18 712.25 2586.87 705.127C2598.07 697.999 2606.98 687.82 2613.59 674.588C2620.72 661.863 2624.28 644.812 2624.28 623.438V589.847C2606.47 604.605 2587.64 616.055 2567.79 624.201C2547.94 631.836 2525.03 635.651 2499.08 635.651C2468.54 635.651 2441.56 630.31 2418.15 619.619C2394.74 608.932 2375.14 594.937 2359.37 577.63C2344.1 560.327 2332.39 540.475 2324.25 518.083C2316.11 495.686 2312.03 472.786 2312.03 449.371C2312.03 425.452 2316.11 402.292 2324.25 379.899C2332.39 356.996 2344.1 336.637 2359.37 318.824C2375.14 301.01 2394.49 286.759 2417.39 276.071C2440.8 264.874 2467.27 259.275 2496.79 259.275C2525.8 259.275 2551.25 264.11 2573.13 273.78C2595.52 283.451 2612.58 295.157 2624.28 308.899V266.91H2729.64V621.145C2729.64 657.792 2723.02 688.331 2709.79 712.761C2697.06 737.192 2680.27 756.783 2659.4 771.546C2638.53 786.815 2614.61 797.502 2587.64 803.61C2561.17 809.715 2534.19 812.771 2506.71 812.771C2480.76 812.771 2457.34 809.971 2436.47 804.373C2415.61 799.284 2397.03 792.412 2380.75 783.759C2364.97 775.109 2351.48 765.437 2340.28 754.75C2329.09 744.57 2319.92 734.135 2312.8 723.448L2379.22 659.318ZM2520.46 554.726C2534.19 554.726 2547.18 552.693 2559.39 548.622C2572.11 544.039 2583.31 538.186 2592.98 531.059C2602.65 523.424 2610.29 514.519 2615.88 504.34C2621.48 494.16 2624.28 483.217 2624.28 471.512V433.338C2624.28 421.125 2621.48 409.675 2615.88 398.984C2610.29 388.297 2602.65 379.136 2592.98 371.501C2583.31 363.358 2572.11 357.25 2559.39 353.178C2546.66 348.598 2533.43 346.308 2519.69 346.308C2504.42 346.308 2490.42 348.853 2477.7 353.942C2465.49 359.032 2454.8 366.157 2445.63 375.318C2436.99 384.48 2430.11 395.42 2425.02 408.145C2419.93 420.869 2417.39 434.868 2417.39 450.134C2417.39 465.403 2419.93 479.654 2425.02 492.89C2430.11 505.614 2437.24 516.557 2446.4 525.718C2455.56 534.878 2466.51 542.001 2479.23 547.091C2491.95 552.181 2505.69 554.726 2520.46 554.726Z" fill="#02504D"/>
    <path d="M3008.36 652.447C2976.3 652.447 2947.29 648.376 2921.33 640.234C2895.88 631.581 2874 619.112 2855.67 602.824C2837.35 586.028 2823.1 565.162 2812.92 540.224C2803.25 514.775 2798.42 485.255 2798.42 451.664C2798.42 421.126 2803.25 393.895 2812.92 369.975C2823.1 345.545 2837.35 324.677 2855.67 307.372C2874 290.068 2896.14 276.835 2922.09 267.674C2948.05 258.512 2977.06 253.932 3009.13 253.932C3074.27 253.932 3123.89 274.036 3158 314.244C3192.09 353.942 3209.15 410.183 3209.15 482.966H2905.3C2905.8 496.705 2908.86 508.923 2914.46 519.609C2920.57 529.789 2928.46 538.694 2938.12 546.329C2948.3 553.456 2959.75 559.053 2972.48 563.124C2985.71 566.688 2999.45 568.47 3013.7 568.47C3038.13 568.47 3059.01 565.669 3076.31 560.072C3093.61 553.963 3104.81 541.239 3109.9 521.899H3203.8C3201.26 547.855 3193.63 569.233 3180.9 586.028C3168.68 602.824 3153.41 616.311 3135.09 626.491C3116.77 636.163 3096.41 642.779 3074.02 646.339C3052.13 650.414 3030.25 652.447 3008.36 652.447ZM3099.21 415.017C3095.14 392.113 3084.71 374.556 3067.91 362.341C3051.62 349.617 3029.74 343.254 3002.25 343.254C2975.28 343.254 2953.9 350.634 2938.12 365.394C2922.35 380.154 2911.91 396.695 2906.82 415.017H3099.21Z" fill="#02504D"/>
    <path d="M3283.42 644.812V267.674H3384.96V321.878C3396.66 300.502 3410.41 285.996 3426.18 278.362C3441.96 270.728 3462.57 266.91 3488.02 266.91H3572V348.598C3545.54 348.598 3525.18 348.598 3510.93 348.598C3496.68 348.09 3485.73 348.598 3478.1 350.125C3444.5 354.197 3421.09 365.903 3407.86 385.245C3394.63 404.074 3388.01 429.268 3388.01 460.825V644.812H3283.42Z" fill="#02504D"/>
    <path fill-rule="evenodd" clip-rule="evenodd" d="M686 232.1L344.283 0L0 232.002V710.947H222.495V711.044C262.52 711.044 269.931 706.92 320.644 675.666C348.801 702.41 384.495 724.873 429.254 740.308L457.253 659.114C427.713 648.927 403.889 634.785 384.754 617.899C432.649 556.143 459.491 462.339 449.999 325.252C449.48 317.759 447.569 297.191 434.954 276.507C421.119 253.822 396.84 235.005 360.065 229.649C319.345 223.719 288.518 240.41 268.723 264.111C250.958 285.381 242.578 311.325 238.32 328.264C225.176 380.557 218.467 462.611 241.421 542.012C247.793 564.052 256.496 585.949 267.97 606.91C265.723 608.812 263.737 610.67 261.844 612.441C252.804 620.9 245.866 627.391 222.517 627.395V627.364H83.5829V276.467L344.098 100.914L602.417 276.369V627.364H527.535V710.947H686V232.1ZM364.318 331.184C371.41 433.614 355.546 499.439 332.092 541.955C328.96 534.155 326.255 526.205 323.928 518.159C306.119 456.557 311.269 390.364 321.615 349.2C324.845 336.349 329.356 325.494 334.642 319.166C336.901 316.461 338.583 315.463 339.608 315.036C340.418 314.698 342.66 313.906 347.687 314.638C354.119 315.575 357.305 317.27 358.692 318.188C360.081 319.108 360.937 320.091 361.629 321.227C363.442 324.199 364.109 328.163 364.318 331.184Z" fill="#02DB82"/>
</svg>
