<svg width="18" height="18" viewBox="0 0 18 18" fill="currentColor" xmlns="http://www.w3.org/2000/svg">
    <path fill-rule="evenodd" clip-rule="evenodd"
          d="M8.50677 3.92871C7.22851 3.92871 6.19226 4.96496 6.19226 6.24322V12.4152C6.19226 12.8413 6.53768 13.1867 6.96376 13.1867C7.38986 13.1867 7.73527 12.8413 7.73527 12.4152V10.1007H9.28175C9.44407 10.0997 9.60694 10.0807 9.76679 10.0541C10.0343 10.0095 10.4027 9.91882 10.7805 9.72995C11.1614 9.53947 11.5657 9.24174 11.8731 8.78069C12.1837 8.31478 12.3643 7.72829 12.3643 7.01469C12.3643 6.30108 12.1837 5.71457 11.8731 5.24869C11.5657 4.78764 11.1614 4.4899 10.7805 4.29948C10.4027 4.11058 10.0343 4.01996 9.76679 3.97538C9.60601 3.94858 9.4416 3.92879 9.27827 3.92871H8.50677ZM7.73527 8.55773V6.24322C7.73527 5.81713 8.08067 5.47172 8.50677 5.47172L9.27858 5.47186C9.55625 5.48111 9.84286 5.55576 10.0905 5.67959C10.2883 5.77848 10.4626 5.91471 10.5892 6.1046C10.7126 6.28967 10.8213 6.57109 10.8213 7.01469C10.8213 7.45834 10.7126 7.73971 10.5892 7.92479C10.4626 8.11473 10.2882 8.2509 10.0905 8.34981C9.84286 8.47364 9.55625 8.54832 9.27851 8.55758L7.73527 8.55773Z"/>
    <path fill-rule="evenodd" clip-rule="evenodd"
          d="M15.4507 0.0708008C16.729 0.0708008 17.7652 1.10705 17.7652 2.38531V14.7294C17.7652 16.0077 16.729 17.0439 15.4507 17.0439H3.10662C1.82836 17.0439 0.792114 16.0077 0.792114 14.7294V2.38531C0.792114 1.10705 1.82836 0.0708008 3.10662 0.0708008H15.4507ZM15.4507 1.61381C15.8768 1.61381 16.2222 1.95923 16.2222 2.38531V14.7294C16.2222 15.1555 15.8768 15.5009 15.4507 15.5009H3.10662C2.68054 15.5009 2.33512 15.1555 2.33512 14.7294V2.38531C2.33512 1.95923 2.68054 1.61381 3.10662 1.61381H15.4507Z"/>
</svg>
