<svg width="37" height="41" viewBox="0 0 37 41" fill="none" xmlns="http://www.w3.org/2000/svg">
    <path d="M2 17.4306C2 11.5683 2 8.63718 2.69212 7.65108C3.38422 6.66499 6.14025 5.72159 11.6523 3.83478L12.7025 3.47532C15.5758 2.49177 17.0124 2 18.5 2C19.9876 2 21.4242 2.49177 24.2976 3.47532L25.3477 3.83478C30.8598 5.72159 33.6158 6.66499 34.3079 7.65108C35 8.63718 35 11.5683 35 17.4306C35 18.3159 35 19.2762 35 20.3176C35 30.6539 27.2285 35.6701 22.3526 37.8C21.03 38.3777 20.3687 38.6667 18.5 38.6667C16.6313 38.6667 15.97 38.3777 14.6474 37.8C9.77143 35.6701 2 30.6539 2 20.3176C2 19.2762 2 18.3159 2 17.4306Z" stroke="#02DB82" stroke-width="2.75"/>
    <path d="M13.917 21.0667L16.5361 24L23.0837 16.6667" stroke="#02DB82" stroke-width="2.75" stroke-linecap="round" stroke-linejoin="round"/>
</svg>
