<svg width="26" height="21" viewBox="0 0 26 21" fill="transparent" xmlns="http://www.w3.org/2000/svg">
    <path d="M24.8941 15.0328C24.8699 15.0328 24.846 15.0339 24.8223 15.0361H22.5019C22.514 14.8112 22.4306 14.5829 22.2534 14.4171C21.9352 14.1195 21.4358 14.1359 21.138 14.4542L20.7081 14.9137V13.2178C20.7081 12.782 20.3548 12.4287 19.919 12.4287C19.4832 12.4287 19.1299 12.782 19.1299 13.2178V14.9137L18.7001 14.4542C18.4022 14.136 17.903 14.1196 17.5846 14.4171C17.4074 14.5829 17.324 14.8112 17.3361 15.0361H15.0157C14.992 15.0339 14.9681 15.0328 14.9439 15.0328C14.5081 15.0328 14.1548 15.3861 14.1548 15.8219V17.1854C14.1548 19.1206 15.9325 20.6949 18.1178 20.6949H21.7204C23.9056 20.6949 25.6834 19.1206 25.6834 17.1854V15.8219C25.6833 15.3861 25.33 15.0328 24.8941 15.0328ZM24.105 17.1854C24.105 18.2322 23.0129 19.1167 21.7203 19.1167H18.1176C16.8249 19.1167 15.7329 18.2322 15.7329 17.1854V16.6143H24.105V17.1854Z"
          fill="currentColor"/>
    <path d="M10.9318 15.0328C10.9075 15.0328 10.8836 15.0339 10.86 15.0361H8.53954C8.55162 14.8112 8.46828 14.5829 8.29105 14.4171C7.97279 14.1195 7.47343 14.1359 7.17562 14.4542L6.74578 14.9137V13.2178C6.74578 12.782 6.39241 12.4287 5.95666 12.4287C5.5209 12.4287 5.16753 12.782 5.16753 13.2178V14.9137L4.7377 14.4542C4.43988 14.136 3.94052 14.1196 3.62227 14.4171C3.44503 14.5829 3.36162 14.8112 3.37377 15.0361H1.05312C1.02952 15.0339 1.00553 15.0328 0.981385 15.0328C0.545552 15.0328 0.192261 15.3861 0.192261 15.8219V17.1854C0.192261 19.1206 1.97 20.6949 4.15524 20.6949H7.75791C9.94308 20.6949 11.7209 19.1206 11.7209 17.1854V15.8219C11.7209 15.3861 11.3675 15.0328 10.9318 15.0328ZM10.1426 17.1854C10.1426 18.2322 9.05058 19.1167 7.75791 19.1167H4.15524C2.86258 19.1167 1.77051 18.2322 1.77051 17.1854V16.6143H10.1426V17.1854Z"
          fill="currentColor"/>
    <path d="M1.39948 10.8065H10.5139C10.9496 10.8065 11.303 10.4531 11.303 10.0174V0.942445C11.303 0.506611 10.9496 0.15332 10.5139 0.15332H1.39948C0.963722 0.15332 0.610352 0.506611 0.610352 0.942445V10.0174C0.610352 10.4531 0.963643 10.8065 1.39948 10.8065ZM2.1886 1.73157H9.72474V9.22825H2.1886V1.73157Z"
          fill="currentColor"/>
    <path d="M14.5258 10.8065H23.6402C24.076 10.8065 24.4293 10.4531 24.4293 10.0174V0.942445C24.4293 0.506611 24.076 0.15332 23.6402 0.15332H14.5258C14.0901 0.15332 13.7367 0.506611 13.7367 0.942445V10.0174C13.7367 10.4531 14.0901 10.8065 14.5258 10.8065ZM15.3149 1.73157H22.8511V9.22825H15.3149V1.73157Z"
          fill="currentColor"/>
</svg>
