<svg width="41" height="38" viewBox="0 0 41 38" fill="none" xmlns="http://www.w3.org/2000/svg">
    <path d="M40.2031 35.3143L38.2907 33.6155C39.5983 32.0145 40.3098 29.9332 40.3098 27.6561C40.3098 24.2406 38.3174 21.2432 35.3286 19.5263C35.5599 18.5212 35.8178 17.0714 35.8178 15.924C35.8178 7.35835 28.0441 0.385254 18.4912 0.385254C8.93826 0.385254 1.16457 7.35835 1.16457 15.924C1.16457 19.7397 2.40982 23.2354 4.68682 25.8412L1.19126 28.9454C0.799894 29.2923 0.675378 29.8349 0.871055 30.3152C1.07563 30.8044 1.55593 31.0979 2.07181 31.0623C3.45937 30.9823 5.88757 30.5464 9.61416 28.9276L9.93436 28.7675C12.3092 30.1551 14.9511 31.4537 18.4822 31.4537H18.8736C19.0515 31.4537 19.2383 31.4626 19.4162 31.4626C19.5318 31.4626 19.6207 31.4626 19.7186 31.4537C21.3641 34.887 25.162 37.2974 29.5739 37.2974C31.7086 37.2974 33.3096 36.5413 34.7504 35.7052L34.8483 35.7497C37.1164 36.7281 38.6107 36.995 39.4733 37.0483C39.9269 37.0928 40.3005 36.826 40.4606 36.4257C40.6296 36.0521 40.5229 35.6074 40.2027 35.3139L40.2031 35.3143ZM30.4015 33.0462C30.3926 33.064 30.3837 33.0907 30.3659 33.1085C30.357 33.1174 30.357 33.1263 30.3481 33.1352C30.3392 33.153 30.3214 33.1707 30.3125 33.1885C30.2592 33.2597 30.2058 33.3131 30.1346 33.3664C30.1169 33.3842 30.0991 33.3931 30.0813 33.402C30.0724 33.4109 30.0635 33.4109 30.0546 33.4198C30.0368 33.4287 30.0101 33.4376 29.9923 33.4554C29.8767 33.5087 29.7522 33.5443 29.6188 33.5443C29.512 33.5443 29.4142 33.5265 29.3252 33.4909C29.2986 33.4821 29.2719 33.4732 29.2452 33.4554C29.2185 33.4465 29.1918 33.4287 29.174 33.4109C29.1118 33.3753 29.0584 33.3308 29.0139 33.2775C28.8538 33.1174 28.756 32.9039 28.756 32.6637C28.756 32.1834 29.1473 31.7921 29.6277 31.7921C29.7344 31.7921 29.8322 31.8098 29.9301 31.8454C29.9568 31.8543 29.9835 31.8632 30.0101 31.881C30.0368 31.8899 30.0546 31.9077 30.0813 31.9255C30.1969 31.9966 30.3037 32.0945 30.3748 32.219C30.3926 32.2457 30.4015 32.2635 30.4193 32.2901C30.4727 32.4058 30.5082 32.5303 30.5082 32.6637C30.4815 32.806 30.4548 32.9306 30.4015 33.0462ZM32.1359 28.5278C32.0648 28.5989 31.9936 28.6612 31.9225 28.7324C31.8869 28.7679 31.8513 28.7946 31.8068 28.8213C31.7268 28.8836 31.6467 28.9369 31.5667 28.9903C31.4866 29.0437 31.3977 29.097 31.3176 29.1415C31.2287 29.186 31.1397 29.2305 31.0508 29.2749C30.8284 29.3728 30.5883 29.4528 30.3392 29.4973V30.4757C30.3392 30.8492 30.0368 31.1605 29.6543 31.1605C29.2719 31.1605 28.9695 30.8581 28.9695 30.4757V28.8835C28.9695 28.51 29.2719 28.1987 29.6543 28.1987C30.8195 28.1987 31.7712 27.247 31.7712 26.0818C31.7712 24.9166 30.8284 23.9738 29.6543 23.9738C28.4892 23.9738 27.5463 24.9255 27.5463 26.0818C27.5463 26.4554 27.2439 26.7667 26.8615 26.7667C26.479 26.7667 26.1766 26.4642 26.1766 26.0818C26.1766 25.1212 26.5679 24.2584 27.1995 23.6269L27.2617 23.5646C27.2795 23.5468 27.3062 23.5291 27.324 23.5113C27.3685 23.4757 27.404 23.4401 27.4485 23.4045L27.5819 23.2978C27.6264 23.2622 27.6709 23.2355 27.7153 23.2C28.2668 22.8264 28.9428 22.604 29.6543 22.604C30.4371 22.604 31.1575 22.862 31.7357 23.2978C31.7801 23.3334 31.8246 23.3689 31.8691 23.4045C31.9136 23.4401 31.958 23.4757 31.9936 23.5113C32.0114 23.529 32.0381 23.5468 32.0559 23.5646C32.0737 23.5824 32.1004 23.6002 32.1181 23.6269C32.7496 24.2584 33.141 25.1211 33.141 26.0818C33.1321 27.0335 32.7496 27.8963 32.1359 28.5278ZM34.0749 18.9129C33.648 18.735 33.2032 18.5749 32.7496 18.4504C31.7534 18.1658 30.6861 18.0146 29.5832 18.0146C28.4714 18.0146 27.404 18.1658 26.3989 18.4504C26.1499 18.5216 25.9008 18.6016 25.6607 18.6817C25.4205 18.7706 25.1804 18.8596 24.9402 18.9663C24.8602 19.0019 24.7801 19.0374 24.709 19.073C24.5578 19.1442 24.4066 19.2153 24.2553 19.2954C24.1041 19.3754 23.9618 19.4555 23.8106 19.5355C23.3748 19.7846 22.9656 20.0692 22.5743 20.3716C22.512 20.425 22.4409 20.4783 22.3786 20.5228C20.2172 22.2928 18.8653 24.8367 18.8653 27.6653C18.8653 28.5103 18.9987 29.3286 19.23 30.1113H18.9187H18.5095C17.5222 30.1113 16.6239 30.0046 15.77 29.8089C15.7522 29.8089 15.7255 29.8 15.7077 29.7911C15.4587 29.7378 15.2185 29.6755 14.9873 29.6043C14.9161 29.5865 14.845 29.5599 14.7827 29.5421C14.7205 29.5243 14.6671 29.5065 14.6048 29.4887C13.7954 29.2219 13.0394 28.8928 12.3011 28.5192C12.1944 28.4658 12.0877 28.4125 11.9898 28.3591C11.4295 28.0656 10.878 27.7454 10.3355 27.4252C10.3088 27.4074 10.2821 27.3985 10.2554 27.3807C10.0775 27.3095 9.87294 27.3095 9.68615 27.3985L9.06353 27.7098C7.40027 28.4302 6.01271 28.9017 4.88309 29.213C4.55399 29.3019 4.2427 29.382 3.94915 29.4442C3.83352 29.4709 3.71789 29.4976 3.61116 29.5154C3.38879 29.5599 3.18422 29.5954 2.99741 29.6221C2.94404 29.631 2.89957 29.6399 2.8551 29.6399C2.71279 29.6577 2.58826 29.6755 2.46374 29.6844L6.13718 26.4201C6.17276 26.3934 6.19944 26.3578 6.22613 26.3133C6.25281 26.2778 6.27949 26.2333 6.29728 26.1977C6.33286 26.1177 6.35954 26.0287 6.35954 25.9309C6.35954 25.8597 6.35065 25.7797 6.33286 25.7085V25.6996C6.32397 25.6818 6.31507 25.664 6.31507 25.6373C6.29728 25.6018 6.27949 25.5573 6.25281 25.5217C6.22613 25.4861 6.19944 25.4506 6.17276 25.4239C6.09271 25.3438 6.02155 25.2638 5.9504 25.1837C5.81698 25.0414 5.69245 24.8902 5.56793 24.7479C5.36336 24.4988 5.16768 24.2409 4.98088 23.983C4.85635 23.814 4.74072 23.6361 4.63399 23.4582C4.04693 22.5243 3.57554 21.5014 3.23755 20.4163C3.19307 20.2562 3.13971 20.105 3.10413 19.9448C3.01518 19.6246 2.94403 19.3044 2.87287 18.9842C2.67719 18.0058 2.57046 16.983 2.57046 15.9423C2.57046 14.9016 2.69498 13.8876 2.93513 12.9181C3.05966 12.4023 3.21976 11.8953 3.40656 11.4061C3.46883 11.246 3.53998 11.077 3.60225 10.9169C3.64672 10.8101 3.69119 10.7034 3.74456 10.5967C3.77124 10.5433 3.79793 10.4899 3.81571 10.4366C3.86908 10.3298 3.91355 10.2231 3.97581 10.1253C4.10923 9.86732 4.25155 9.60939 4.40275 9.35145C4.55396 9.1024 4.71406 8.85333 4.87418 8.60432C5.10544 8.26633 5.3545 7.92832 5.62131 7.60813C5.73695 7.47471 5.85257 7.3324 5.9682 7.19898C6.16388 6.97662 6.36846 6.75426 6.58195 6.54967C9.50826 3.62336 13.7777 1.77343 18.5185 1.77343C19.826 1.77343 21.0979 1.91574 22.3075 2.17369C22.5032 2.21816 22.69 2.26263 22.8768 2.3071C23.2503 2.40494 23.6239 2.51168 23.9975 2.62731C26.4435 3.42781 28.6048 4.73531 30.3303 6.41638C30.3747 6.46085 30.4192 6.49643 30.4548 6.5409C30.9618 7.0479 31.4332 7.59046 31.8601 8.15971C31.9313 8.25755 32.0024 8.3465 32.0647 8.44434C32.1359 8.54218 32.1981 8.64002 32.2693 8.73786C32.3315 8.8357 32.4027 8.93354 32.465 9.03138C32.5895 9.22706 32.714 9.43163 32.8296 9.6362C32.883 9.73403 32.9453 9.84077 32.9986 9.9475C33.1054 10.1521 33.2121 10.3655 33.3099 10.579C33.3544 10.668 33.39 10.7569 33.4345 10.8547C33.4522 10.8903 33.4611 10.917 33.4789 10.9526C33.5145 11.0415 33.559 11.1394 33.5946 11.2283C33.639 11.335 33.6835 11.4507 33.7191 11.5574C33.7636 11.6641 33.7991 11.7798 33.8347 11.8865C33.9414 12.2067 34.0393 12.5358 34.1193 12.8649C34.1282 12.8916 34.1371 12.9183 34.1371 12.9449C34.3684 13.9056 34.4929 14.9106 34.4929 15.9335C34.4573 16.8052 34.2795 17.9612 34.0749 18.9129Z" fill="#02DB82"/>
    <path d="M25.015 14.3893C27.0749 15.2432 25.7941 18.3332 23.7342 17.4793C21.6742 16.6272 22.955 13.5373 25.015 14.3893Z" fill="#02DB82"/>
    <path d="M19.9505 15.9334C19.9505 18.1624 16.6061 18.1624 16.6061 15.9334C16.6061 13.7045 19.9505 13.7045 19.9505 15.9334Z" fill="#02DB82"/>
    <path d="M13.9374 15.355C13.9107 15.275 13.8751 15.2038 13.8395 15.1326C13.8128 15.0882 13.7861 15.0437 13.7595 14.9992C13.6972 14.9103 13.626 14.8302 13.5549 14.7502C13.2525 14.4478 12.8344 14.261 12.3719 14.261C11.4469 14.261 10.6997 15.0081 10.6997 15.9332C10.6997 16.8582 11.4468 17.6054 12.3719 17.6054C12.8344 17.6054 13.2525 17.4186 13.5549 17.1162C13.626 17.045 13.6972 16.9561 13.7595 16.8671C13.7861 16.8226 13.8128 16.7782 13.8395 16.7337C13.8751 16.6625 13.9107 16.5914 13.9374 16.5113C13.9551 16.458 13.9729 16.4046 13.9818 16.3512C14.0174 16.2178 14.0352 16.0755 14.0352 15.9332C14.0352 15.7909 14.0174 15.6486 13.9818 15.5151C13.9729 15.4618 13.9551 15.4084 13.9374 15.355Z" fill="#02DB82"/>
</svg>
