<svg width="21" height="19" viewBox="0 0 21 19" fill="none" xmlns="http://www.w3.org/2000/svg">
    <mask id="path-1-inside-1_631_2144" fill="white">
        <path d="M0.947266 3.60603C0.947266 1.96343 2.41096 0.631836 4.21652 0.631836H17.2936C19.0991 0.631836 20.5628 1.96343 20.5628 3.60603V15.5028C20.5628 17.1454 19.0991 18.477 17.2936 18.477H4.21652C2.41096 18.477 0.947266 17.1454 0.947266 15.5028V3.60603Z"/>
    </mask>
    <path d="M17.5533 4.0094C17.5708 3.64022 17.2857 3.32681 16.9165 3.30936L10.9004 3.02505C10.5313 3.0076 10.2179 3.29273 10.2004 3.6619C10.183 4.03108 10.4681 4.3445 10.8373 4.36194L16.1849 4.61467L15.9321 9.96225C15.9147 10.3314 16.1998 10.6448 16.569 10.6623C16.9382 10.6797 17.2516 10.3946 17.269 10.0254L17.5533 4.0094ZM3.95673 15.0995C3.93928 15.4686 4.22442 15.782 4.59359 15.7995L10.6096 16.0838C10.9788 16.1013 11.2922 15.8161 11.3097 15.4469C11.3271 15.0778 11.042 14.7644 10.6728 14.7469L5.32522 14.4942L5.57794 9.1466C5.59539 8.77743 5.31026 8.46401 4.94108 8.44656C4.57191 8.42912 4.25849 8.71425 4.24104 9.08342L3.95673 15.0995ZM5.07551 15.626L17.3352 4.47281L16.4346 3.48281L4.17485 14.636L5.07551 15.626ZM4.21652 1.97022H17.2936V-0.706553H4.21652V1.97022ZM19.2244 3.60603V15.5028H21.9012V3.60603H19.2244ZM17.2936 17.1386H4.21652V19.8154H17.2936V17.1386ZM2.28565 15.5028V3.60603H-0.391123V15.5028H2.28565ZM4.21652 17.1386C3.02819 17.1386 2.28565 16.2899 2.28565 15.5028H-0.391123C-0.391123 18.0009 1.79374 19.8154 4.21652 19.8154V17.1386ZM19.2244 15.5028C19.2244 16.2899 18.4819 17.1386 17.2936 17.1386V19.8154C19.7163 19.8154 21.9012 18.0009 21.9012 15.5028H19.2244ZM17.2936 1.97022C18.4819 1.97022 19.2244 2.81892 19.2244 3.60603H21.9012C21.9012 1.10794 19.7163 -0.706553 17.2936 -0.706553V1.97022ZM4.21652 -0.706553C1.79374 -0.706553 -0.391123 1.10794 -0.391123 3.60603H2.28565C2.28565 2.81892 3.02819 1.97022 4.21652 1.97022V-0.706553Z" fill="#02504D" mask="url(#path-1-inside-1_631_2144)"/>
</svg>
