<svg width="23" height="21" viewBox="0 0 23 21" fill="transparent" xmlns="http://www.w3.org/2000/svg">
    <path d="M12.8002 19.1642H11.9744V14.1458H15.5318C16.4601 14.1458 17.2152 13.3906 17.2152 12.4624C17.2152 11.5341 16.4601 10.7789 15.5318 10.7789H11.9744V6.67109H20.146C20.377 6.67109 20.5899 6.54565 20.7017 6.34347C20.8136 6.14137 20.807 5.89432 20.6843 5.69855C19.1146 3.19309 15.7386 1.52864 11.9687 1.3607C11.9293 1.04782 11.6627 0.805664 11.3392 0.805664C11.0156 0.805664 10.749 1.04782 10.7095 1.3607C6.93964 1.52864 3.56375 3.19309 1.99401 5.69855C1.87135 5.89432 1.86467 6.14137 1.97656 6.34347C2.08846 6.54565 2.30127 6.67109 2.53233 6.67109H10.7039V10.779H7.14657C6.21832 10.779 5.46316 11.5342 5.46316 12.4624C5.46316 13.3907 6.21832 14.1458 7.14657 14.1458H10.7039V19.1643H9.87814C9.52732 19.1643 9.24286 19.4488 9.24286 19.7996C9.24286 20.1504 9.52732 20.4349 9.87814 20.4349H12.8002C13.1511 20.4349 13.4355 20.1504 13.4355 19.7996C13.4355 19.4488 13.1511 19.1642 12.8002 19.1642ZM11.3392 2.61611C14.3918 2.61611 17.1938 3.68071 18.8444 5.40055H3.83387C5.4845 3.68071 8.28652 2.61611 11.3392 2.61611ZM6.73363 12.4624C6.73363 12.2347 6.91889 12.0495 7.14657 12.0495H15.5318C15.7595 12.0495 15.9447 12.2347 15.9447 12.4624C15.9447 12.6901 15.7595 12.8754 15.5318 12.8754H7.14657C6.91889 12.8753 6.73363 12.69 6.73363 12.4624Z"
          fill="currentColor"/>
    <path d="M21.3683 15.4577V8.59591C21.3683 8.26467 21.0864 7.99609 20.7388 7.99609C20.3912 7.99609 20.1093 8.26467 20.1093 8.59591V14.9237H17.0461C16.7511 14.9237 16.4956 15.1189 16.4316 15.3934L15.5084 19.3519C15.433 19.6753 15.647 19.9957 15.9863 20.0675C16.0323 20.0773 16.0782 20.0819 16.1235 20.0819C16.412 20.0819 16.6721 19.8917 16.7373 19.6121L17.551 16.1232H20.2339L21.0476 19.6121C21.1127 19.8917 21.3728 20.0819 21.6614 20.0819C21.7066 20.0819 21.7525 20.0773 21.7985 20.0675C22.1379 19.9956 22.3519 19.6753 22.2764 19.3519L21.3683 15.4577Z"
          fill="currentColor"/>
    <path d="M1.30985 15.4577V8.59591C1.30985 8.26467 1.5917 7.99609 1.93931 7.99609C2.28692 7.99609 2.56878 8.26467 2.56878 8.59591V14.9237H5.63203C5.92699 14.9237 6.18246 15.1189 6.2465 15.3934L7.16968 19.3519C7.24512 19.6753 7.03111 19.9957 6.69175 20.0675C6.64578 20.0773 6.59987 20.0819 6.55462 20.0819C6.26615 20.0819 6.00597 19.8917 5.94081 19.6121L5.12712 16.1232H2.44422L1.63054 19.6121C1.56538 19.8917 1.30526 20.0819 1.01672 20.0819C0.971469 20.0819 0.925562 20.0773 0.87959 20.0675C0.540233 19.9956 0.32622 19.6753 0.401661 19.3519L1.30985 15.4577Z"
          fill="currentColor"/>
</svg>
