<svg width="18" height="20" viewBox="0 0 18 20" fill="transparent" xmlns="http://www.w3.org/2000/svg">
    <path d="M10.9941 7.80847V14.7761M7.01256 7.80847V14.7761M3.03104 3.82696V15.5724C3.03104 16.6874 3.03104 17.2445 3.24802 17.6703C3.43888 18.0449 3.7432 18.35 4.1178 18.5408C4.54322 18.7576 5.10042 18.7576 6.21318 18.7576H11.7935C12.9062 18.7576 13.4626 18.7576 13.888 18.5408C14.2626 18.35 14.568 18.0449 14.7588 17.6703C14.9756 17.2449 14.9756 16.6882 14.9756 15.5755V3.82696M3.03104 3.82696H5.0218M3.03104 3.82696H1.04028M14.9756 3.82696H12.9848M14.9756 3.82696H16.9663M5.0218 3.82696H12.9848M5.0218 3.82696C5.0218 2.89938 5.0218 2.43583 5.17333 2.06997C5.37539 1.58219 5.76268 1.19441 6.25047 0.992357C6.61632 0.84082 7.08034 0.84082 8.00794 0.84082H9.99869C10.9263 0.84082 11.39 0.84082 11.7559 0.992357C12.2437 1.19441 12.6312 1.58219 12.8332 2.06997C12.9847 2.43582 12.9848 2.89938 12.9848 3.82696"
          stroke="currentColor" stroke-width="1.34114" stroke-linecap="round" stroke-linejoin="round"/>
</svg>
