<svg width="29" height="23" viewBox="0 0 29 23" fill="transparent" xmlns="http://www.w3.org/2000/svg">
    <path d="M23.3674 5.61118L22.0946 6.88392L23.1791 7.96842L17.6939 12.5325L17.4598 7.14753H12.6981V0.847656H10.8982V7.14753H7.19233L5.43038 5.38558C4.37771 4.33292 2.66477 4.33292 1.61205 5.38558C1.10344 5.89419 0.823364 6.57228 0.823364 7.2948C0.823364 8.01737 1.10344 8.69541 1.612 9.20391L5.86224 13.4542L5.45823 22.7473H18.138L18.0049 19.6867L25.6769 10.4662L26.7614 11.5507L28.0342 10.278L23.3674 5.61118ZM5.96827 11.0148L2.88468 7.93117C2.71616 7.76264 2.62331 7.53661 2.62331 7.2948C2.62331 7.05298 2.71611 6.82695 2.88474 6.65837C3.06023 6.48288 3.29061 6.39519 3.52116 6.39519C3.75155 6.39519 3.98215 6.48294 4.15753 6.65837L6.0744 8.57524L5.96827 11.0148ZM7.33816 20.9473L7.85984 8.94753H10.898V12.8474H12.698V8.94753H15.7362L16.2579 20.9473H7.33816ZM17.8886 17.0124L17.7921 14.7924L24.1095 9.53586L17.8886 17.0124Z"
          fill="currentColor"/>
</svg>
