<svg width="20" height="22" viewBox="0 0 20 22" fill="transparent" xmlns="http://www.w3.org/2000/svg">
    <path d="M7.91673 4.64632C9.0493 4.64632 9.96743 3.72819 9.96743 2.59562C9.96743 1.46305 9.0493 0.544922 7.91673 0.544922C6.78416 0.544922 5.86603 1.46305 5.86603 2.59562C5.86603 3.72819 6.78416 4.64632 7.91673 4.64632Z"
          fill="currentColor"/>
    <path d="M16.099 13.6737C16.0526 13.4413 15.9271 13.2322 15.7439 13.082C15.5607 12.9317 15.3311 12.8495 15.0942 12.8493H10.8564L10.4165 9.77327H15.0942V7.72257H10.1243L9.95719 6.55162C9.92215 6.30739 9.80022 6.08397 9.61376 5.92238C9.42731 5.76078 9.18883 5.67184 8.94209 5.67188H7.91674C7.76994 5.67236 7.62493 5.70427 7.49148 5.76547C7.35803 5.82666 7.23923 5.91571 7.14307 6.02664C7.0469 6.13757 6.9756 6.26781 6.93396 6.40859C6.89232 6.54937 6.8813 6.69743 6.90165 6.84282L7.80088 13.1405C7.87277 13.6282 8.11716 14.0739 8.48967 14.3968C8.86219 14.7196 9.33813 14.8982 9.83107 14.9H14.2534L15.1137 19.2024C15.2101 19.6812 15.6304 20.0268 16.1195 20.0268H19.1956V17.9761H16.9593L16.099 13.6737Z"
          fill="currentColor"/>
    <path d="M11.5163 16.4377C10.7586 17.9512 9.20926 19.0011 7.40464 19.0011C6.18133 18.9998 5.00851 18.5132 4.1435 17.6482C3.27848 16.7832 2.79192 15.6104 2.79057 14.3871C2.79229 13.4683 3.06807 12.571 3.58261 11.8099C4.09715 11.0487 4.82707 10.4584 5.67898 10.1144L5.38265 8.03809C2.69316 8.8963 0.739868 11.4176 0.739868 14.3871C0.739868 18.0619 3.72979 21.0518 7.40464 21.0518C8.5477 21.0502 9.67112 20.7545 10.6669 20.1932C11.6626 19.6319 12.4971 18.8237 13.0902 17.8466L12.8093 16.4377H11.5163Z"
          fill="currentColor"/>
</svg>
